<svg viewBox="0 0 329 35" fill="none" xmlns="http://www.w3.org/2000/svg">
<rect width="64" height="2" transform="translate(24 16.5)" fill="#FFC90D"/>
<rect width="64" height="2" transform="translate(88 16.5)" fill="#FFC90D"/>
<rect width="40" height="2" transform="translate(152 16.5)" fill="#FFC90D"/>
<rect width="64" height="2" transform="translate(192 16.5)" fill="#FFC90D"/>
<rect width="35" height="35" rx="17.5" fill="#FFC90D"/>
<path d="M15.6659 22.1242C15.4075 22.1242 15.1621 22.0209 14.9813 21.8401L11.3259 18.1846C10.9513 17.8101 10.9513 17.1901 11.3259 16.8155C11.7004 16.4409 12.3204 16.4409 12.695 16.8155L15.6659 19.7863L22.305 13.1471C22.6796 12.7726 23.2996 12.7726 23.6742 13.1471C24.0488 13.5217 24.0488 14.1417 23.6742 14.5163L16.3504 21.8401C16.1696 22.0209 15.9242 22.1242 15.6659 22.1242Z" fill="white"/>
<rect x="74.5" y="0.5" width="34" height="34" rx="17" fill="white"/>
<rect x="74.5" y="0.5" width="34" height="34" rx="17" stroke="#FFC90D"/>
<circle cx="91.5" cy="17.5" r="3.875" fill="#FFC90D"/>
<rect x="148" width="35" height="35" rx="17.5" fill="#FFC90D"/>
<path d="M163.666 22.1242C163.408 22.1242 163.162 22.0209 162.981 21.8401L159.326 18.1846C158.951 17.8101 158.951 17.1901 159.326 16.8155C159.7 16.4409 160.32 16.4409 160.695 16.8155L163.666 19.7863L170.305 13.1471C170.68 12.7726 171.3 12.7726 171.674 13.1471C172.049 13.5217 172.049 14.1417 171.674 14.5163L164.35 21.8401C164.17 22.0209 163.924 22.1242 163.666 22.1242Z" fill="white"/>
<rect x="74" width="35" height="35" rx="17.5" fill="#FFC90D"/>
<path d="M89.6659 22.1242C89.4075 22.1242 89.1621 22.0209 88.9813 21.8401L85.3259 18.1846C84.9513 17.8101 84.9513 17.1901 85.3259 16.8155C85.7004 16.4409 86.3204 16.4409 86.695 16.8155L89.6659 19.7863L96.305 13.1471C96.6796 12.7726 97.2996 12.7726 97.6742 13.1471C98.0488 13.5217 98.0488 14.1417 97.6742 14.5163L90.3504 21.8401C90.1696 22.0209 89.9242 22.1242 89.6659 22.1242Z" fill="white"/>
<rect x="221" width="35" height="35" rx="17.5" fill="#FFC90D"/>
<path d="M236.666 22.1242C236.408 22.1242 236.162 22.0209 235.981 21.8401L232.326 18.1846C231.951 17.8101 231.951 17.1901 232.326 16.8155C232.7 16.4409 233.32 16.4409 233.695 16.8155L236.666 19.7863L243.305 13.1471C243.68 12.7726 244.3 12.7726 244.674 13.1471C245.049 13.5217 245.049 14.1417 244.674 14.5163L237.35 21.8401C237.17 22.0209 236.924 22.1242 236.666 22.1242Z" fill="white"/>
<rect x="294" width="35" height="35" rx="17.5" fill="#FFC90D"/>
<path d="M309.666 22.1242C309.408 22.1242 309.162 22.0209 308.981 21.8401L305.326 18.1846C304.951 17.8101 304.951 17.1901 305.326 16.8155C305.7 16.4409 306.32 16.4409 306.695 16.8155L309.666 19.7863L316.305 13.1471C316.68 12.7726 317.3 12.7726 317.674 13.1471C318.049 13.5217 318.049 14.1417 317.674 14.5163L310.35 21.8401C310.17 22.0209 309.924 22.1242 309.666 22.1242Z" fill="white"/>
<rect width="48" height="2" transform="translate(251 17)" fill="#FFC90D"/>
</svg>
