<svg viewBox="0 0 329 35" fill="none" xmlns="http://www.w3.org/2000/svg">
<rect width="77.3333" height="2" transform="translate(239 17)" fill="#FFC90D"/>
<rect width="67" height="2" transform="translate(24 16.9531)" fill="#FFC90D"/>
<rect width="165" height="2" transform="translate(91 16.9531)" fill="#FFC90D"/>
<rect width="35" height="35" rx="17.5" fill="#FFC90D"/>
<path d="M15.6659 22.1242C15.4075 22.1242 15.1621 22.0209 14.9813 21.8401L11.3259 18.1846C10.9513 17.8101 10.9513 17.1901 11.3259 16.8155C11.7004 16.4409 12.3204 16.4409 12.695 16.8155L15.6659 19.7863L22.305 13.1471C22.6796 12.7726 23.2996 12.7726 23.6742 13.1471C24.0488 13.5217 24.0488 14.1417 23.6742 14.5163L16.3504 21.8401C16.1696 22.0209 15.9242 22.1242 15.6659 22.1242Z" fill="white"/>
<rect x="294.5" y="0.5" width="34" height="34" rx="17" fill="white"/>
<rect x="294.5" y="0.5" width="34" height="34" rx="17" stroke="#FFC90D"/>
<circle cx="311.5" cy="17.5" r="3.875" fill="#FFC90D"/>
<rect x="148" width="35" height="35" rx="17.5" fill="#FFC90D"/>
<path d="M163.666 22.1242C163.408 22.1242 163.162 22.0209 162.981 21.8401L159.326 18.1846C158.951 17.8101 158.951 17.1901 159.326 16.8155C159.7 16.4409 160.32 16.4409 160.695 16.8155L163.666 19.7863L170.305 13.1471C170.68 12.7726 171.3 12.7726 171.674 13.1471C172.049 13.5217 172.049 14.1417 171.674 14.5163L164.35 21.8401C164.17 22.0209 163.924 22.1242 163.666 22.1242Z" fill="white"/>
<rect x="222" width="35" height="35" rx="17.5" fill="#FFC90D"/>
<path d="M237.666 22.1242C237.408 22.1242 237.162 22.0209 236.981 21.8401L233.326 18.1846C232.951 17.8101 232.951 17.1901 233.326 16.8155C233.7 16.4409 234.32 16.4409 234.695 16.8155L237.666 19.7863L244.305 13.1471C244.68 12.7726 245.3 12.7726 245.674 13.1471C246.049 13.5217 246.049 14.1417 245.674 14.5163L238.35 21.8401C238.17 22.0209 237.924 22.1242 237.666 22.1242Z" fill="white"/>
<rect x="74" width="35" height="35" rx="17.5" fill="#FFC90D"/>
<path d="M89.6659 22.1242C89.4075 22.1242 89.1621 22.0209 88.9813 21.8401L85.3259 18.1846C84.9513 17.8101 84.9513 17.1901 85.3259 16.8155C85.7004 16.4409 86.3204 16.4409 86.695 16.8155L89.6659 19.7863L96.305 13.1471C96.6796 12.7726 97.2996 12.7726 97.6742 13.1471C98.0488 13.5217 98.0488 14.1417 97.6742 14.5163L90.3504 21.8401C90.1696 22.0209 89.9242 22.1242 89.6659 22.1242Z" fill="white"/>
</svg>
