<svg viewBox="0 0 329 35" fill="none" xmlns="http://www.w3.org/2000/svg">
<rect width="77.3333" height="2" transform="translate(239 17)" fill="#C6C6C6"/>
<rect width="67" height="2" transform="translate(24 16.9531)" fill="#FFC90D"/>
<rect width="165" height="2" transform="translate(91 16.9531)" fill="#C6C6C6"/>
<rect width="35" height="35" rx="17.5" fill="#FFC90D"/>
<path d="M15.6659 22.1242C15.4075 22.1242 15.1621 22.0208 14.9813 21.84L11.3259 18.1846C10.9513 17.81 10.9513 17.19 11.3259 16.8154C11.7004 16.4408 12.3204 16.4408 12.695 16.8154L15.6659 19.7863L22.305 13.1471C22.6796 12.7725 23.2996 12.7725 23.6742 13.1471C24.0488 13.5217 24.0488 14.1417 23.6742 14.5163L16.3504 21.84C16.1696 22.0208 15.9242 22.1242 15.6659 22.1242Z" fill="white"/>
<rect x="222.5" y="0.5" width="34" height="34" rx="17" fill="white"/>
<rect x="222.5" y="0.5" width="34" height="34" rx="17" stroke="#FFC90D"/>
<circle cx="239.5" cy="17.5" r="3.875" fill="#FFC90D"/>
<rect x="74.5" y="0.5" width="34" height="34" rx="17" fill="white"/>
<rect x="74.5" y="0.5" width="34" height="34" rx="17" stroke="#FFC90D"/>
<circle cx="91.5" cy="17.5" r="3.875" fill="#FFC90D"/>
<rect x="148.5" y="0.5" width="34" height="34" rx="17" fill="white"/>
<rect x="148.5" y="0.5" width="34" height="34" rx="17" stroke="#FFC90D"/>
<circle cx="165.5" cy="17.5" r="3.875" fill="#FFC90D"/>
<rect x="294.5" y="0.5" width="34" height="34" rx="17" fill="white"/>
<rect x="294.5" y="0.5" width="34" height="34" rx="17" stroke="#FFC90D"/>
<circle cx="311.5" cy="17.5" r="3.875" fill="#FFC90D"/>
</svg>
