<svg viewBox="0 0 257 35" fill="none" xmlns="http://www.w3.org/2000/svg">
<rect width="116" height="2" transform="translate(24 16.9531)" fill="#C6C6C6"/>
<rect width="116" height="2" transform="translate(140 16.9531)" fill="#C6C6C6"/>
<rect width="35" height="35" rx="17.5" fill="#FFC90D"/>
<path d="M15.6659 22.1242C15.4075 22.1242 15.1621 22.0209 14.9813 21.8401L11.3259 18.1846C10.9513 17.8101 10.9513 17.1901 11.3259 16.8155C11.7004 16.4409 12.3204 16.4409 12.695 16.8155L15.6659 19.7863L22.305 13.1471C22.6796 12.7726 23.2996 12.7726 23.6742 13.1471C24.0488 13.5217 24.0488 14.1417 23.6742 14.5163L16.3504 21.8401C16.1696 22.0209 15.9242 22.1242 15.6659 22.1242Z" fill="white"/>
<rect x="222.5" y="0.5" width="34" height="34" rx="17" fill="white"/>
<rect x="222.5" y="0.5" width="34" height="34" rx="17" stroke="#FFC90D"/>
<circle cx="239.5" cy="17.5" r="3.875" fill="#FFC90D"/>
<rect x="74.5" y="0.5" width="34" height="34" rx="17" fill="white"/>
<rect x="74.5" y="0.5" width="34" height="34" rx="17" stroke="#FFC90D"/>
<circle cx="91.5" cy="17.5" r="3.875" fill="#FFC90D"/>
<rect x="148.5" y="0.5" width="34" height="34" rx="17" fill="white"/>
<rect x="148.5" y="0.5" width="34" height="34" rx="17" stroke="#FFC90D"/>
<circle cx="165.5" cy="17.5" r="3.875" fill="#FFC90D"/>
</svg>
