<svg viewBox="0 0 28 28" fill="none" xmlns="http://www.w3.org/2000/svg">
<path d="M24.1507 4.78331C21.8173 5.59997 18.5507 6.41664 14.0007 6.41664C9.45065 6.41664 5.95065 5.48331 3.85065 4.78331C3.15065 4.43331 2.33398 5.01664 2.33398 5.83331V22.1666C2.33398 22.9833 3.15065 23.5666 3.85065 23.3333C6.30065 22.5166 9.45065 21.5833 14.0007 21.5833C18.5507 21.5833 21.8173 22.5166 24.1507 23.3333C24.9673 23.5666 25.6673 22.9833 25.6673 22.1666V5.83331C25.6673 5.01664 24.8507 4.43331 24.1507 4.78331ZM14.0007 17.5C11.3173 17.5 8.75065 17.6166 6.41732 17.9666L10.734 12.8333L13.0673 15.6333L16.334 11.6666L21.584 17.9666C19.2507 17.6166 16.684 17.5 14.0007 17.5Z" fill="#FEC90D"/>
</svg>
