<svg width="34" height="34" viewBox="0 0 34 34" fill="none" xmlns="http://www.w3.org/2000/svg">
<path fill-rule="evenodd" clip-rule="evenodd" d="M29.0841 6.41745C29.2718 6.21603 29.374 5.94963 29.3691 5.67437C29.3643 5.39911 29.2528 5.13648 29.0581 4.94181C28.8634 4.74715 28.6008 4.63564 28.3255 4.63078C28.0503 4.62592 27.7839 4.7281 27.5825 4.91578L4.91581 27.5824C4.81142 27.6797 4.72769 27.797 4.66962 27.9273C4.61155 28.0577 4.58032 28.1984 4.5778 28.341C4.57528 28.4837 4.60153 28.6254 4.65497 28.7577C4.7084 28.89 4.78794 29.0102 4.88884 29.1111C4.98973 29.212 5.10991 29.2915 5.24221 29.345C5.37451 29.3984 5.51622 29.4246 5.65888 29.4221C5.80154 29.4196 5.94224 29.3884 6.07257 29.3303C6.2029 29.2722 6.3202 29.1885 6.41747 29.0841L10.7171 24.7845C12.5842 25.6459 14.722 26.2083 17 26.2083C20.7088 26.2083 24.0436 24.7194 26.4463 22.8749C27.6505 21.9512 28.6379 20.9255 29.3292 19.9282C30.0092 18.9479 30.4583 17.9194 30.4583 16.9999C30.4583 16.0805 30.0092 15.052 29.3292 14.0731C28.6379 13.0744 27.6505 12.0487 26.4463 11.1264C26.0638 10.8318 25.6558 10.5456 25.228 10.275L29.0841 6.41745ZM21.4341 14.0703L19.8758 15.6258C20.1599 16.2206 20.2526 16.8888 20.1411 17.5385C20.0296 18.1882 19.7195 18.7873 19.2534 19.2534C18.7873 19.7195 18.1882 20.0296 17.5385 20.1411C16.8889 20.2525 16.2206 20.1599 15.6258 19.8758L14.0675 21.4341C15.0891 22.1105 16.3131 22.413 17.5322 22.2904C18.7512 22.1677 19.8905 21.6274 20.7568 20.7611C21.6232 19.8947 22.1635 18.7555 22.2861 17.5364C22.4088 16.3173 22.1063 15.0933 21.4299 14.0717" fill="#A6A6B1"/>
<path d="M17.9491 11.7726C18.0074 11.7835 18.0675 11.7802 18.1242 11.7629C18.1809 11.7457 18.2326 11.715 18.275 11.6734L21.0375 8.91091C21.0804 8.86868 21.1115 8.81591 21.1277 8.75789C21.1439 8.69986 21.1445 8.63861 21.1296 8.58025C21.1147 8.5219 21.0847 8.46847 21.0427 8.42532C21.0007 8.38216 20.9481 8.35079 20.8901 8.33433C19.6241 7.9775 18.3153 7.79495 17 7.79175C13.2911 7.79175 9.95629 9.28066 7.55363 11.1252C6.34946 12.0488 5.36204 13.0745 4.66929 14.0718C3.98929 15.0522 3.54163 16.0807 3.54163 17.0001C3.54163 17.9195 3.99071 18.948 4.66929 19.9269C5.34343 20.8731 6.13991 21.7258 7.03796 22.4627C7.10516 22.5183 7.19074 22.5466 7.27781 22.5422C7.36488 22.5377 7.44712 22.5008 7.50829 22.4387L11.6733 18.2737C11.7148 18.2313 11.7455 18.1796 11.7628 18.1229C11.7801 18.0662 11.7834 18.0061 11.7725 17.9478C11.6189 17.1029 11.6725 16.2334 11.9286 15.4138C12.1847 14.5941 12.6357 13.8488 13.2429 13.2416C13.8501 12.6344 14.5954 12.1834 15.4151 11.9273C16.2347 11.6712 17.1042 11.6176 17.9491 11.7712" fill="#A6A6B1"/>
</svg>
