<svg viewBox="0 0 16 16" fill="none" xmlns="http://www.w3.org/2000/svg">
<path d="M14.3393 4.83341L5.33268 13.8534L1.66602 14.3334L2.14602 10.6667L11.166 1.66007C11.373 1.44924 11.6199 1.28171 11.8923 1.16725C12.1647 1.05279 12.4572 0.993698 12.7527 0.993408C13.0483 0.993407 13.341 1.05174 13.614 1.16506C13.887 1.27838 14.135 1.44447 14.3437 1.6538C14.5524 1.86313 14.7177 2.11158 14.8302 2.38493C14.9428 2.65828 15.0002 2.95114 14.9993 3.24674C14.9999 3.54175 14.9419 3.83393 14.8286 4.10631C14.7153 4.37869 14.549 4.62584 14.3393 4.83341Z" stroke="#FFC90D" stroke-miterlimit="10"/>
<path d="M9.91992 2.90674L13.0933 6.08007" stroke="#FFC90D" stroke-width="2" stroke-miterlimit="10"/>
<path d="M5 13.6018L2 14L2.39273 11C3.01314 11.1646 3.57816 11.4923 4.02909 11.9491C4.49636 12.402 4.83193 12.9732 5 13.6018Z" stroke="#FFC90D" stroke-miterlimit="10"/>
<path d="M11.5072 4.49341L4.17383 11.8267" stroke="#FFC90D" stroke-miterlimit="10"/>
</svg>
