<svg viewBox="0 0 28 28" fill="none" xmlns="http://www.w3.org/2000/svg">
<path fill-rule="evenodd" clip-rule="evenodd" d="M27.1122 2.64868C27.3074 2.4212 27.4137 2.12033 27.4087 1.80945C27.4036 1.49856 27.2876 1.20195 27.0851 0.982087C26.8826 0.762227 26.6094 0.636287 26.3231 0.630802C26.0367 0.625317 25.7596 0.740714 25.5501 0.952682L1.97117 26.5527C1.86257 26.6625 1.77548 26.795 1.71507 26.9422C1.65466 27.0894 1.62218 27.2483 1.61956 27.4094C1.61694 27.5706 1.64424 27.7306 1.69983 27.88C1.75542 28.0295 1.83815 28.1652 1.94311 28.2791C2.04806 28.3931 2.17308 28.4829 2.31071 28.5433C2.44833 28.6036 2.59574 28.6333 2.74415 28.6304C2.89255 28.6276 3.03891 28.5923 3.17448 28.5267C3.31006 28.4611 3.43208 28.3666 3.53327 28.2487L8.0059 23.3927C9.94821 24.3655 12.172 25.0007 14.5417 25.0007C18.3998 25.0007 21.8688 23.3191 24.3682 21.2359C25.6208 20.1927 26.648 19.0343 27.3672 17.9079C28.0745 16.8007 28.5417 15.6391 28.5417 14.6007C28.5417 13.5623 28.0745 12.4007 27.3672 11.2951C26.648 10.1671 25.6208 9.00868 24.3682 7.96708C23.9703 7.63428 23.5459 7.31108 23.1008 7.00548L27.1122 2.64868ZM19.1543 11.2919L17.5333 13.0487C17.8288 13.7205 17.9252 14.4752 17.8092 15.2089C17.6933 15.9427 17.3707 16.6193 16.8858 17.1457C16.401 17.6722 15.7777 18.0224 15.1019 18.1483C14.4261 18.2742 13.731 18.1695 13.1122 17.8487L11.4912 19.6087C12.5539 20.3726 13.8271 20.7143 15.0953 20.5757C16.3634 20.4372 17.5485 19.827 18.4497 18.8485C19.351 17.87 19.913 16.5834 20.0406 15.2065C20.1682 13.8297 19.8535 12.4473 19.1499 11.2935" fill="#A6A6B1"/>
<path d="M15.529 8.69693C15.5896 8.70926 15.6521 8.70552 15.7111 8.68602C15.7701 8.66652 15.8239 8.63184 15.8679 8.58493L18.7416 5.46493C18.7863 5.41722 18.8187 5.35763 18.8355 5.2921C18.8523 5.22656 18.853 5.15739 18.8375 5.09148C18.822 5.02556 18.7908 4.96523 18.7471 4.91649C18.7034 4.86775 18.6486 4.83232 18.5884 4.81373C17.2714 4.41071 15.9099 4.20455 14.5416 4.20093C10.6835 4.20093 7.21446 5.88253 4.7151 7.96573C3.46247 9.00893 2.43531 10.1673 1.71468 11.2937C1.00731 12.4009 0.541626 13.5625 0.541626 14.6009C0.541626 15.6393 1.00878 16.8009 1.71468 17.9065C2.41594 18.9751 3.24448 19.9382 4.17868 20.7705C4.24858 20.8333 4.33761 20.8653 4.42818 20.8602C4.51876 20.8552 4.6043 20.8135 4.66794 20.7433L9.00057 16.0393C9.04378 15.9915 9.07572 15.9331 9.09368 15.8691C9.11164 15.805 9.11508 15.7372 9.10373 15.6713C8.94403 14.7171 8.99976 13.7351 9.26616 12.8093C9.53255 11.8836 10.0017 11.0418 10.6333 10.356C11.265 9.67024 12.0403 9.16091 12.893 8.87168C13.7456 8.58245 14.6501 8.52194 15.529 8.69533" fill="#A6A6B1"/>
</svg>
