<svg viewBox="0 0 28 28" fill="none" xmlns="http://www.w3.org/2000/svg">
<path d="M14 4.66675C7.63636 4.66675 2.20182 8.62493 0 14.2122C2.20182 19.7995 7.63636 23.7577 14 23.7577C20.3636 23.7577 25.7982 19.7995 28 14.2122C25.7982 8.62493 20.3636 4.66675 14 4.66675ZM14 20.5758C10.4873 20.5758 7.63636 17.7249 7.63636 14.2122C7.63636 10.6995 10.4873 7.84857 14 7.84857C17.5127 7.84857 20.3636 10.6995 20.3636 14.2122C20.3636 17.7249 17.5127 20.5758 14 20.5758ZM14 10.394C11.8873 10.394 10.1818 12.0995 10.1818 14.2122C10.1818 16.3249 11.8873 18.0304 14 18.0304C16.1127 18.0304 17.8182 16.3249 17.8182 14.2122C17.8182 12.0995 16.1127 10.394 14 10.394Z" fill="#A6A6B1"/>
</svg>
