<svg width="544" height="76" viewBox="0 0 544 76" fill="none" xmlns="http://www.w3.org/2000/svg">
<rect x="0.5" y="0.5" width="543" height="75" rx="9.5" fill="#FEFEFE" stroke="#E4E4E4"/>
<path d="M232.582 33.25C232.582 34.5938 232.547 35.7852 232.477 36.8242C232.414 37.8633 232.25 39.0469 231.984 40.375H235.09V41.8984H226.488V50.9453H224.637V41.8984H216.105V40.375H230.121C230.402 39.0469 230.578 37.8594 230.648 36.8125C230.719 35.7656 230.754 34.5781 230.754 33.25V32.9453H218.496V31.4219H232.582V33.25ZM253.418 32.3125C253.418 33.3203 253.391 34.2383 253.336 35.0664C253.281 35.8945 253.152 36.8281 252.949 37.8672H255.926V39.3438H236.848V37.8672H251.098C251.309 36.8359 251.441 35.9102 251.496 35.0898C251.559 34.2617 251.59 33.3906 251.59 32.4766H239.262V30.9766H253.418V32.3125ZM253.488 46.7031H240.996V49.1641H254.027V50.6641H239.145V45.25H251.66V42.9297H239.121V41.4531H253.488V46.7031ZM276.668 48.3203H257.59V46.7734H266.168V42.8359H259.98V36.4141H272.449V33.1328H259.934V31.6094H274.254V37.9141H261.809V41.3125H274.746V42.8359H267.973V46.7734H276.668V48.3203ZM303.434 48.3203H284.355V46.7734H292.934V42.8359H286.746V36.4141H299.215V33.1328H286.699V31.6094H301.02V37.9141H288.574V41.3125H301.512V42.8359H294.738V46.7734H303.434V48.3203ZM321.527 34.375C321.527 35.5703 321.512 36.6133 321.48 37.5039C321.457 38.3945 321.391 39.4336 321.281 40.6211C321.172 41.8086 320.996 43.1016 320.754 44.5L318.879 44.3125C319.137 42.9922 319.328 41.75 319.453 40.5859C319.578 39.4141 319.652 38.3828 319.676 37.4922C319.707 36.5938 319.723 35.5547 319.723 34.375V33.8125H307.16V32.2891H321.527V34.375ZM324.082 47.8281H305.098V46.3047H324.082V47.8281ZM343.043 45.3203H341.215V30.0859H343.043V45.3203ZM343.699 50.4531H329.59V43.7734H331.418V48.9062H343.699V50.4531ZM331.793 31.5391C332.824 31.5391 333.754 31.7578 334.582 32.1953C335.418 32.625 336.07 33.2305 336.539 34.0117C337.016 34.7852 337.254 35.6641 337.254 36.6484C337.254 37.6484 337.016 38.5391 336.539 39.3203C336.07 40.0938 335.418 40.6992 334.582 41.1367C333.754 41.5664 332.824 41.7812 331.793 41.7812C330.762 41.7812 329.828 41.5664 328.992 41.1367C328.164 40.6992 327.512 40.0938 327.035 39.3203C326.566 38.5391 326.332 37.6484 326.332 36.6484C326.332 35.6641 326.566 34.7852 327.035 34.0117C327.512 33.2305 328.164 32.625 328.992 32.1953C329.828 31.7578 330.762 31.5391 331.793 31.5391ZM331.793 33.1562C331.098 33.1562 330.469 33.3047 329.906 33.6016C329.352 33.8984 328.914 34.3125 328.594 34.8438C328.281 35.375 328.129 35.9766 328.137 36.6484C328.129 37.3281 328.281 37.9375 328.594 38.4766C328.914 39.0078 329.352 39.4219 329.906 39.7188C330.469 40.0156 331.098 40.1641 331.793 40.1641C332.473 40.1641 333.09 40.0156 333.645 39.7188C334.207 39.4219 334.648 39.0078 334.969 38.4766C335.289 37.9375 335.449 37.3281 335.449 36.6484C335.449 35.9844 335.289 35.3867 334.969 34.8555C334.648 34.3242 334.207 33.9102 333.645 33.6133C333.09 33.3086 332.473 33.1562 331.793 33.1562Z" fill="black"/>
<rect width="70" height="70" transform="translate(19 3)" fill="#FEFEFE"/>
<circle cx="54" cy="38" r="35" fill="#F8F8F8"/>
<path fill-rule="evenodd" clip-rule="evenodd" d="M76.2946 38.3302C76.2946 36.717 76.1498 35.1658 75.8809 33.6768H54.4546V42.4769H66.6982C66.1708 45.3206 64.568 47.73 62.1586 49.3432V55.0514H69.511C73.8128 51.0908 76.2946 45.2586 76.2946 38.3302Z" fill="#4285F4"/>
<path fill-rule="evenodd" clip-rule="evenodd" d="M54.4547 60.5628C60.5972 60.5628 65.747 58.5256 69.5111 55.051L62.1587 49.3429C60.1215 50.7079 57.5156 51.5145 54.4547 51.5145C48.5294 51.5145 43.5141 47.5125 41.7251 42.1353H34.1245V48.0296C37.8679 55.4647 45.5616 60.5628 54.4547 60.5628Z" fill="#34A853"/>
<path fill-rule="evenodd" clip-rule="evenodd" d="M41.7249 42.1355C41.2699 40.7705 41.0114 39.3124 41.0114 37.813C41.0114 36.3136 41.2699 34.8555 41.7249 33.4905V27.5962H34.1244C32.5836 30.6674 31.7046 34.142 31.7046 37.813C31.7046 41.484 32.5836 44.9586 34.1244 48.0298L41.7249 42.1355Z" fill="#FBBC05"/>
<path fill-rule="evenodd" clip-rule="evenodd" d="M54.4547 24.1115C57.7948 24.1115 60.7937 25.2594 63.1514 27.5137L69.6765 20.9886C65.7367 17.3175 60.5869 15.0632 54.4547 15.0632C45.5616 15.0632 37.8679 20.1613 34.1245 27.5964L41.7251 33.4907C43.5141 28.1135 48.5294 24.1115 54.4547 24.1115Z" fill="#EA4335"/>
</svg>
