<svg viewBox="0 0 60 60" fill="none" xmlns="http://www.w3.org/2000/svg">
<path d="M0 27.4798C0 27.1966 0.120124 26.9266 0.330537 26.737L29.3289 0.603294C29.7093 0.260436 30.2873 0.26042 30.6678 0.603257L59.6694 26.737C59.8799 26.9266 60 27.1966 60 27.4799V59C60 59.5523 59.5523 60 59 60H36.0391C35.4868 60 35.0391 59.5523 35.0391 59V44.1037C34.9167 42.56 33.816 39.4728 29.9983 39.4728C26.2428 39.4728 25.3109 42.4603 25.0486 44.0271C25.0399 44.0788 25.0361 44.13 25.0361 44.1825V59C25.0361 59.5523 24.5884 60 24.0361 60H1C0.447716 60 0 59.5523 0 59V27.4798Z" fill="#FFC90D"/>
</svg>
