<svg width="544" height="76" viewBox="0 0 544 76" fill="none" xmlns="http://www.w3.org/2000/svg">
<rect width="544" height="76" rx="10" fill="#FEE500"/>
<path d="M216.648 32.2422C216.641 34.4062 216.348 36.4023 215.77 38.2305C215.191 40.0508 214.199 41.75 212.793 43.3281C211.387 44.8984 209.484 46.2734 207.086 47.4531L206.055 46.0469C207.969 45.125 209.543 44.0703 210.777 42.8828C212.012 41.6875 212.953 40.3672 213.602 38.9219L206.453 39.6016L206.148 37.9844L214.164 37.4453C214.516 36.3047 214.734 35.0781 214.82 33.7656H207.203V32.2422H216.648ZM221.969 38.5469H225.344V40.0938H221.969V50.8984H220.141V30.0625H221.969V38.5469ZM237.391 32.2422C237.383 34.4062 237.09 36.4023 236.512 38.2305C235.934 40.0508 234.941 41.75 233.535 43.3281C232.129 44.8984 230.227 46.2734 227.828 47.4531L226.797 46.0469C228.711 45.125 230.285 44.0703 231.52 42.8828C232.754 41.6875 233.695 40.3672 234.344 38.9219L227.195 39.6016L226.891 37.9844L234.906 37.4453C235.258 36.3047 235.477 35.0781 235.562 33.7656H227.945V32.2422H237.391ZM242.711 38.5469H246.086V40.0938H242.711V50.8984H240.883V30.0625H242.711V38.5469ZM256.82 31.4219C258.289 31.4297 259.602 31.6602 260.758 32.1133C261.914 32.5664 262.816 33.207 263.465 34.0352C264.113 34.8555 264.438 35.8047 264.438 36.8828C264.438 37.8984 264.152 38.8008 263.582 39.5898C263.02 40.3789 262.23 41.0078 261.215 41.4766C260.199 41.9453 259.031 42.2227 257.711 42.3086V46.6797H266.406V48.2266H247.328V46.6797H255.906V42.3086C254.594 42.2227 253.43 41.9453 252.414 41.4766C251.398 41 250.609 40.3711 250.047 39.5898C249.484 38.8008 249.203 37.8984 249.203 36.8828C249.203 35.8047 249.527 34.8555 250.176 34.0352C250.824 33.207 251.727 32.5664 252.883 32.1133C254.039 31.6602 255.352 31.4297 256.82 31.4219ZM256.82 32.9453C255.703 32.9453 254.699 33.1133 253.809 33.4492C252.926 33.7773 252.234 34.2422 251.734 34.8438C251.234 35.4375 250.984 36.1172 250.984 36.8828C250.984 37.6719 251.234 38.3672 251.734 38.9688C252.234 39.5703 252.926 40.0352 253.809 40.3633C254.691 40.6914 255.695 40.8594 256.82 40.8672C257.945 40.8594 258.949 40.6914 259.832 40.3633C260.715 40.0352 261.406 39.5703 261.906 38.9688C262.406 38.3672 262.656 37.6719 262.656 36.8828C262.656 36.1172 262.406 35.4375 261.906 34.8438C261.406 34.2422 260.711 33.7773 259.82 33.4492C258.938 33.1133 257.938 32.9453 256.82 32.9453ZM287.148 48.3203H268.07V46.7734H276.648V42.8359H270.461V36.4141H282.93V33.1328H270.414V31.6094H284.734V37.9141H272.289V41.3125H285.227V42.8359H278.453V46.7734H287.148V48.3203ZM313.914 48.3203H294.836V46.7734H303.414V42.8359H297.227V36.4141H309.695V33.1328H297.18V31.6094H311.5V37.9141H299.055V41.3125H311.992V42.8359H305.219V46.7734H313.914V48.3203ZM332.008 34.375C332.008 35.5703 331.992 36.6133 331.961 37.5039C331.938 38.3945 331.871 39.4336 331.762 40.6211C331.652 41.8086 331.477 43.1016 331.234 44.5L329.359 44.3125C329.617 42.9922 329.809 41.75 329.934 40.5859C330.059 39.4141 330.133 38.3828 330.156 37.4922C330.188 36.5938 330.203 35.5547 330.203 34.375V33.8125H317.641V32.2891H332.008V34.375ZM334.562 47.8281H315.578V46.3047H334.562V47.8281ZM353.523 45.3203H351.695V30.0859H353.523V45.3203ZM354.18 50.4531H340.07V43.7734H341.898V48.9062H354.18V50.4531ZM342.273 31.5391C343.305 31.5391 344.234 31.7578 345.062 32.1953C345.898 32.625 346.551 33.2305 347.02 34.0117C347.496 34.7852 347.734 35.6641 347.734 36.6484C347.734 37.6484 347.496 38.5391 347.02 39.3203C346.551 40.0938 345.898 40.6992 345.062 41.1367C344.234 41.5664 343.305 41.7812 342.273 41.7812C341.242 41.7812 340.309 41.5664 339.473 41.1367C338.645 40.6992 337.992 40.0938 337.516 39.3203C337.047 38.5391 336.812 37.6484 336.812 36.6484C336.812 35.6641 337.047 34.7852 337.516 34.0117C337.992 33.2305 338.645 32.625 339.473 32.1953C340.309 31.7578 341.242 31.5391 342.273 31.5391ZM342.273 33.1562C341.578 33.1562 340.949 33.3047 340.387 33.6016C339.832 33.8984 339.395 34.3125 339.074 34.8438C338.762 35.375 338.609 35.9766 338.617 36.6484C338.609 37.3281 338.762 37.9375 339.074 38.4766C339.395 39.0078 339.832 39.4219 340.387 39.7188C340.949 40.0156 341.578 40.1641 342.273 40.1641C342.953 40.1641 343.57 40.0156 344.125 39.7188C344.688 39.4219 345.129 39.0078 345.449 38.4766C345.77 37.9375 345.93 37.3281 345.93 36.6484C345.93 35.9844 345.77 35.3867 345.449 34.8555C345.129 34.3242 344.688 33.9102 344.125 33.6133C343.57 33.3086 342.953 33.1562 342.273 33.1562Z" fill="black"/>
<circle cx="54" cy="37" r="35" fill="#FEE500"/>
<path d="M54.1012 18.8921C43.2119 18.8921 34.4303 25.9173 34.4303 34.4461C34.4303 39.982 38.0835 44.8294 43.5632 47.5974L41.7085 54.5244C41.6736 54.6283 41.6682 54.7397 41.693 54.8464C41.7178 54.9531 41.7718 55.0508 41.849 55.1285C41.9616 55.2278 42.1064 55.2827 42.2565 55.2831C42.3809 55.2731 42.499 55.2239 42.5937 55.1426L50.5745 49.7613C51.7525 49.9239 52.9401 50.0083 54.1293 50.0141C65.0044 50.0141 73.8001 42.9888 73.8001 34.4461C73.8001 25.9033 64.9764 18.8921 54.1012 18.8921Z" fill="#392020"/>
<path d="M41.3145 31.9873H39.1647C38.8983 31.995 38.6351 31.9268 38.406 31.7905C38.3043 31.7268 38.2168 31.6427 38.1491 31.5436C38.0814 31.4444 38.0349 31.3324 38.0126 31.2144C38.0057 31.1396 38.0057 31.0645 38.0126 30.9897C38.0059 30.8498 38.033 30.7103 38.0918 30.5831C38.1505 30.4559 38.239 30.3448 38.3498 30.2591C38.5947 30.0817 38.8904 29.988 39.1928 29.992H45.6702C45.9387 29.9826 46.2037 30.0562 46.4289 30.2028C46.533 30.2637 46.6223 30.3471 46.6904 30.4467C46.7584 30.5463 46.8035 30.6598 46.8223 30.7789C46.8292 30.849 46.8292 30.9196 46.8223 30.9897C46.8289 31.1317 46.8018 31.2731 46.7432 31.4026C46.6846 31.532 46.5961 31.6456 46.4851 31.7343C46.2461 31.9115 45.9533 32.0009 45.6561 31.9873H43.5766V39.3779C43.5851 39.5354 43.5607 39.6928 43.5051 39.8403C43.4494 39.9879 43.3637 40.1223 43.2534 40.235C43.1477 40.3427 43.0205 40.4272 42.8802 40.4828C42.7398 40.5385 42.5894 40.5641 42.4385 40.5581C42.1746 40.5656 41.9163 40.4813 41.7079 40.3194C41.5094 40.1612 41.3747 39.9365 41.3285 39.687C41.3146 39.5844 41.3146 39.4805 41.3285 39.3779L41.3145 31.9873Z" fill="#FEE500"/>
<path d="M47.4425 30.5398C47.5043 30.3086 47.6495 30.1084 47.85 29.9778C48.0637 29.8566 48.3072 29.7982 48.5525 29.8092H49.0864C49.3468 29.7998 49.6046 29.8631 49.8311 29.9918C50.0711 30.1532 50.2417 30.399 50.3089 30.6803L53.119 38.6189C53.1918 38.826 53.2528 39.0372 53.3016 39.2513C53.3064 39.3402 53.3064 39.4293 53.3016 39.5182C53.3064 39.6551 53.2812 39.7915 53.2278 39.9176C53.1744 40.0438 53.0941 40.1569 52.9925 40.2488C52.8941 40.3497 52.7759 40.4293 52.6454 40.4825C52.5148 40.5356 52.3747 40.5613 52.2338 40.5579C52.0171 40.5795 51.7994 40.5275 51.6159 40.4102C51.4324 40.293 51.2937 40.1173 51.2221 39.9116L50.632 38.1834H46.9367L46.3466 39.9116C46.2768 40.1214 46.1364 40.3004 45.9494 40.4183C45.7623 40.5362 45.5402 40.5855 45.3209 40.5579C45.0833 40.5641 44.8506 40.4898 44.6605 40.3471C44.4753 40.1999 44.3504 39.9901 44.3092 39.7571C44.3018 39.6777 44.3018 39.5976 44.3092 39.5182C44.2851 39.3787 44.2851 39.2362 44.3092 39.0968C44.3092 38.9422 44.4076 38.7735 44.4638 38.6189L47.4425 30.5398ZM48.8476 32.3805L47.5128 36.5957H50.1683L48.8476 32.3805Z" fill="#FEE500"/>
<path d="M53.6234 30.9897C53.6091 30.6743 53.7203 30.3662 53.9325 30.1326C54.0404 30.0237 54.17 29.9387 54.3128 29.883C54.4555 29.8274 54.6084 29.8022 54.7615 29.8093C55.0247 29.8062 55.2816 29.8902 55.4921 30.0482C55.6873 30.213 55.8169 30.4423 55.8575 30.6945C55.8713 30.7923 55.8713 30.8918 55.8575 30.9897V38.3803H59.7214C59.9892 38.3768 60.2525 38.4498 60.4801 38.5909C60.5824 38.654 60.6703 38.738 60.7381 38.8372C60.8059 38.9365 60.852 39.0488 60.8735 39.167C60.8735 39.167 60.8735 39.3076 60.8735 39.3778C60.8802 39.5178 60.853 39.6571 60.7943 39.7843C60.7356 39.9115 60.6471 40.0228 60.5363 40.1085C60.2914 40.2859 59.9957 40.3794 59.6933 40.3754H54.9442C54.6417 40.3948 54.341 40.3161 54.0871 40.1507C53.8599 39.9808 53.7085 39.7285 53.6656 39.4482C53.6553 39.2938 53.6553 39.1388 53.6656 38.9844L53.6234 30.9897Z" fill="#FEE500"/>
<path d="M61.1267 30.9899C61.1183 30.6755 61.2287 30.3695 61.4358 30.1328C61.6464 29.9415 61.9165 29.8285 62.2006 29.8131C62.4847 29.7977 62.7655 29.8809 62.9954 30.0484C63.1949 30.2118 63.3294 30.4409 63.3748 30.6947C63.3817 30.7929 63.3817 30.8916 63.3748 30.9899V34.4322L66.9296 30.3294C67.0666 30.1894 67.212 30.0581 67.3652 29.9361C67.5095 29.8501 67.675 29.8062 67.8429 29.8095C68.0885 29.8082 68.3286 29.8817 68.5314 30.0203C68.6269 30.0846 68.7085 30.1676 68.7713 30.2642C68.834 30.3608 68.8767 30.4689 68.8967 30.5824C68.9024 30.6102 68.9024 30.6389 68.8967 30.6667C68.8899 30.6992 68.8899 30.7326 68.8967 30.765C68.8962 30.9129 68.8575 31.0581 68.7843 31.1866C68.7097 31.3226 68.6202 31.4497 68.5173 31.5658L66.1849 34.1231L68.995 38.4788V38.6193C69.1409 38.8206 69.2547 39.0435 69.3323 39.2798V39.3499C69.3485 39.5127 69.325 39.6771 69.2639 39.8288C69.2027 39.9805 69.1056 40.1151 68.981 40.2211C68.7466 40.3982 68.4598 40.4922 68.1661 40.4881C67.9709 40.4962 67.777 40.4524 67.604 40.3615C67.4169 40.236 67.2627 40.0674 67.1544 39.8698L64.541 35.6546L63.2905 36.9614V39.3077C63.2989 39.6221 63.1885 39.9281 62.9814 40.1648C62.8703 40.2733 62.7383 40.3581 62.5933 40.4137C62.4483 40.4692 62.2935 40.4946 62.1383 40.4881C61.8791 40.4935 61.6259 40.4091 61.4218 40.2492C61.2233 40.091 61.0886 39.8665 61.0424 39.617C61.0285 39.5144 61.0285 39.4103 61.0424 39.3077L61.1267 30.9899Z" fill="#FEE500"/>
</svg>
