<svg width="544" height="76" viewBox="0 0 544 76" fill="none" xmlns="http://www.w3.org/2000/svg">
<rect width="544" height="76" rx="10" fill="#00C73C"/>
<path d="M208.703 44.0078C209.961 43.9922 211.129 43.9375 212.207 43.8438C213.293 43.7422 214.422 43.5703 215.594 43.3281L215.852 44.9219C214.555 45.1953 213.309 45.3828 212.113 45.4844C210.926 45.5781 209.617 45.625 208.188 45.625H206.875V32.3359H208.703V44.0078ZM223.68 50.8984H221.922V30.0625H223.68V50.8984ZM219.227 49.8438H217.469V38.6172H212.711V37.0938H217.469V30.5781H219.227V49.8438ZM243.766 50.9453H241.914V30.0625H243.766V50.9453ZM232.68 31.6797C233.711 31.6875 234.629 31.9922 235.434 32.5938C236.238 33.1875 236.867 34.0312 237.32 35.125C237.773 36.2188 238 37.4922 238 38.9453C238 40.3984 237.773 41.6719 237.32 42.7656C236.867 43.8594 236.238 44.7031 235.434 45.2969C234.629 45.8906 233.711 46.1875 232.68 46.1875C231.648 46.1875 230.727 45.8906 229.914 45.2969C229.109 44.7031 228.48 43.8594 228.027 42.7656C227.582 41.6719 227.359 40.3984 227.359 38.9453C227.359 37.4922 227.582 36.2188 228.027 35.125C228.48 34.0312 229.109 33.1875 229.914 32.5938C230.719 31.9922 231.641 31.6875 232.68 31.6797ZM232.68 33.3203C231.984 33.3281 231.367 33.5664 230.828 34.0352C230.297 34.4961 229.883 35.1523 229.586 36.0039C229.289 36.8477 229.141 37.8281 229.141 38.9453C229.141 40.0625 229.289 41.0469 229.586 41.8984C229.883 42.7422 230.301 43.3945 230.84 43.8555C231.379 44.3164 231.992 44.5469 232.68 44.5469C233.367 44.5469 233.98 44.3164 234.52 43.8555C235.059 43.3945 235.477 42.7422 235.773 41.8984C236.07 41.0469 236.219 40.0625 236.219 38.9453C236.219 37.8281 236.07 36.8477 235.773 36.0039C235.477 35.1523 235.059 34.4961 234.52 34.0352C233.988 33.5664 233.375 33.3281 232.68 33.3203ZM264.602 50.9453H262.773V39.3438H257.781V45.6719H248.172V31.7031H250.023V37.1406H255.977V31.7031H257.781V37.8203H262.773V30.0625H264.602V50.9453ZM255.977 44.1484V38.6172H250.023V44.1484H255.977ZM287.148 48.3203H268.07V46.7734H276.648V42.8359H270.461V36.4141H282.93V33.1328H270.414V31.6094H284.734V37.9141H272.289V41.3125H285.227V42.8359H278.453V46.7734H287.148V48.3203ZM313.914 48.3203H294.836V46.7734H303.414V42.8359H297.227V36.4141H309.695V33.1328H297.18V31.6094H311.5V37.9141H299.055V41.3125H311.992V42.8359H305.219V46.7734H313.914V48.3203ZM332.008 34.375C332.008 35.5703 331.992 36.6133 331.961 37.5039C331.938 38.3945 331.871 39.4336 331.762 40.6211C331.652 41.8086 331.477 43.1016 331.234 44.5L329.359 44.3125C329.617 42.9922 329.809 41.75 329.934 40.5859C330.059 39.4141 330.133 38.3828 330.156 37.4922C330.188 36.5938 330.203 35.5547 330.203 34.375V33.8125H317.641V32.2891H332.008V34.375ZM334.562 47.8281H315.578V46.3047H334.562V47.8281ZM353.523 45.3203H351.695V30.0859H353.523V45.3203ZM354.18 50.4531H340.07V43.7734H341.898V48.9062H354.18V50.4531ZM342.273 31.5391C343.305 31.5391 344.234 31.7578 345.062 32.1953C345.898 32.625 346.551 33.2305 347.02 34.0117C347.496 34.7852 347.734 35.6641 347.734 36.6484C347.734 37.6484 347.496 38.5391 347.02 39.3203C346.551 40.0938 345.898 40.6992 345.062 41.1367C344.234 41.5664 343.305 41.7812 342.273 41.7812C341.242 41.7812 340.309 41.5664 339.473 41.1367C338.645 40.6992 337.992 40.0938 337.516 39.3203C337.047 38.5391 336.812 37.6484 336.812 36.6484C336.812 35.6641 337.047 34.7852 337.516 34.0117C337.992 33.2305 338.645 32.625 339.473 32.1953C340.309 31.7578 341.242 31.5391 342.273 31.5391ZM342.273 33.1562C341.578 33.1562 340.949 33.3047 340.387 33.6016C339.832 33.8984 339.395 34.3125 339.074 34.8438C338.762 35.375 338.609 35.9766 338.617 36.6484C338.609 37.3281 338.762 37.9375 339.074 38.4766C339.395 39.0078 339.832 39.4219 340.387 39.7188C340.949 40.0156 341.578 40.1641 342.273 40.1641C342.953 40.1641 343.57 40.0156 344.125 39.7188C344.688 39.4219 345.129 39.0078 345.449 38.4766C345.77 37.9375 345.93 37.3281 345.93 36.6484C345.93 35.9844 345.77 35.3867 345.449 34.8555C345.129 34.3242 344.688 33.9102 344.125 33.6133C343.57 33.3086 342.953 33.1562 342.273 33.1562Z" fill="white"/>
<circle cx="54" cy="38" r="35" fill="#00C73C"/>
<path d="M49.1328 22.7991H37.3989V53.2013H49.1328V38.1334L59.6667 53.2013H70.6008V22.7991H59.6667V38.8002L49.1328 22.7991Z" fill="white"/>
</svg>
