<svg width="544" height="76" viewBox="0 0 544 76" fill="none" xmlns="http://www.w3.org/2000/svg">
<rect width="544" height="76" rx="10" fill="#00C73C"/>
<path d="M199.961 29.1719V40.8438C202.117 40.8086 204.156 40.668 206.477 40.1875L206.781 42.0859C204.039 42.6484 201.719 42.7656 199.117 42.7656H197.734V29.1719H199.961ZM214.82 26.9922V47.9922H212.711V26.9922H214.82ZM210.32 27.4609V46.9609H208.211V35.7344H203.617V33.9062H208.211V27.4609H210.32ZM234.906 26.9922V48.0391H232.68V26.9922H234.906ZM223.68 28.5625C226.797 28.5625 229.094 31.4219 229.094 35.9219C229.094 40.4453 226.797 43.3047 223.68 43.3047C220.516 43.3047 218.242 40.4453 218.242 35.9219C218.242 31.4219 220.516 28.5625 223.68 28.5625ZM223.68 30.5547C221.734 30.5547 220.398 32.6172 220.398 35.9219C220.398 39.25 221.734 41.3125 223.68 41.3125C225.602 41.3125 226.938 39.25 226.938 35.9219C226.938 32.6172 225.602 30.5547 223.68 30.5547ZM255.766 26.9922V48.0391H253.562V36.4844H248.922V42.8359H239.078V28.6094H241.328V33.9766H246.742V28.6094H248.922V34.6562H253.562V26.9922H255.766ZM241.328 41.0078H246.742V35.7344H241.328V41.0078ZM278.219 43.6094V45.4844H259V43.6094H267.461V39.9297H261.344V33.25H273.672V30.2969H261.297V28.4688H275.875V35.0312H263.547V38.1016H276.367V39.9297H269.664V43.6094H278.219ZM304.82 43.6094V45.4844H285.602V43.6094H294.062V39.9297H287.945V33.25H300.273V30.2969H287.898V28.4688H302.477V35.0312H290.148V38.1016H302.969V39.9297H296.266V43.6094H304.82ZM322.984 29.125V31.375C322.984 34.0938 322.984 37.0469 322.211 41.5234L319.938 41.3125C320.781 37.1172 320.781 34.0234 320.781 31.375V30.9531H308.406V29.125H322.984ZM325.492 43.1641V45.0156H306.344V43.1641H325.492ZM344.5 27.0156V42.2734H342.273V27.0156H344.5ZM345.133 45.7422V47.5469H330.766V40.7266H333.016V45.7422H345.133ZM333.109 28.4219C336.273 28.4219 338.688 30.5781 338.688 33.625C338.688 36.7188 336.273 38.8516 333.109 38.8516C329.945 38.8516 327.508 36.7188 327.508 33.625C327.508 30.5781 329.945 28.4219 333.109 28.4219ZM333.109 30.3672C331.141 30.3672 329.688 31.7031 329.688 33.625C329.688 35.5938 331.141 36.9062 333.109 36.9062C335.031 36.9062 336.508 35.5938 336.508 33.625C336.508 31.7031 335.031 30.3672 333.109 30.3672Z" fill="white"/>
<circle cx="54" cy="38" r="35" fill="#00C73C"/>
<path d="M49.1328 22.7991H37.3989V53.2013H49.1328V38.1334L59.6667 53.2013H70.6008V22.7991H59.6667V38.8002L49.1328 22.7991Z" fill="white"/>
</svg>
