<svg viewBox="0 0 80 80" fill="none" xmlns="http://www.w3.org/2000/svg">
<rect width="80" height="80" rx="10" fill="white"/>
<path d="M47.2714 43.7189V36.5C47.2676 33.0534 45.9736 29.7491 43.673 27.312C41.3725 24.8749 38.2534 23.504 35 23.5C31.7466 23.504 28.6275 24.8749 26.327 27.312C24.0264 29.7491 22.7324 33.0534 22.7286 36.5V43.7189L20 46.6094V49.5H50V46.6094L47.2714 43.7189Z" stroke="black" stroke-width="2" stroke-miterlimit="10"/>
<path d="M38.7605 49.5C38.9326 50.0777 39.0134 50.6944 38.9982 51.3135C38.9982 52.689 38.577 54.0082 37.8272 54.9809C37.0773 55.9536 36.0604 56.5 35 56.5C33.9396 56.5 32.9227 55.9536 32.1728 54.9809C31.423 54.0082 31.0018 52.689 31.0018 51.3135C30.9866 50.6944 31.0674 50.0777 31.2395 49.5" fill="#1A1C20"/>
<path d="M38.7605 49.5C38.9326 50.0777 39.0134 50.6944 38.9982 51.3135C38.9982 52.689 38.577 54.0082 37.8272 54.9809C37.0773 55.9536 36.0604 56.5 35 56.5C33.9396 56.5 32.9227 55.9536 32.1728 54.9809C31.423 54.0082 31.0018 52.689 31.0018 51.3135C30.9866 50.6944 31.0674 50.0777 31.2395 49.5" stroke="black" stroke-width="2" stroke-miterlimit="10"/>
</svg>
