<svg viewBox="0 0 80 80" fill="none" xmlns="http://www.w3.org/2000/svg">
<rect width="80" height="80" rx="10" fill="white"/>
<path d="M50.8997 38.4167H19.083V57.5001H50.8997V38.4167Z" fill="#1A1C20" stroke="black" stroke-width="2" stroke-miterlimit="10"/>
<path d="M34.9995 22.5C36.4616 22.5 37.9093 22.788 39.2601 23.3475C40.6108 23.907 41.8382 24.7271 42.872 25.7609C43.9058 26.7947 44.7259 28.022 45.2854 29.3728C45.8449 30.7235 46.1329 32.1713 46.1329 33.6333V38.3333H23.8662V33.6333C23.8662 30.6806 25.0392 27.8488 27.1271 25.7609C29.215 23.673 32.0468 22.5 34.9995 22.5Z" stroke="black" stroke-width="2" stroke-miterlimit="10"/>
<path d="M30.2334 47.95H33.4167" stroke="white" stroke-width="2" stroke-miterlimit="10"/>
<path d="M23.8662 47.95H27.0495" stroke="white" stroke-width="2" stroke-miterlimit="10"/>
<path d="M36.583 47.95H39.7663" stroke="white" stroke-width="2" stroke-miterlimit="10"/>
<path d="M42.9502 47.95H46.1335" stroke="white" stroke-width="2" stroke-miterlimit="10"/>
</svg>
