<svg width="544" height="76" viewBox="0 0 544 76" fill="none" xmlns="http://www.w3.org/2000/svg">
<rect x="0.5" y="0.5" width="543" height="75" rx="9.5" fill="#FDFDFD" stroke="#E4E4E4"/>
<path d="M222.023 48.9453H220.172V28.0625H222.023V48.9453ZM210.938 29.6797C211.969 29.6875 212.887 29.9922 213.691 30.5938C214.496 31.1875 215.125 32.0312 215.578 33.125C216.031 34.2188 216.258 35.4922 216.258 36.9453C216.258 38.3984 216.031 39.6719 215.578 40.7656C215.125 41.8594 214.496 42.7031 213.691 43.2969C212.887 43.8906 211.969 44.1875 210.938 44.1875C209.906 44.1875 208.984 43.8906 208.172 43.2969C207.367 42.7031 206.738 41.8594 206.285 40.7656C205.84 39.6719 205.617 38.3984 205.617 36.9453C205.617 35.4922 205.84 34.2188 206.285 33.125C206.738 32.0312 207.367 31.1875 208.172 30.5938C208.977 29.9922 209.898 29.6875 210.938 29.6797ZM210.938 31.3203C210.242 31.3281 209.625 31.5664 209.086 32.0352C208.555 32.4961 208.141 33.1523 207.844 34.0039C207.547 34.8477 207.398 35.8281 207.398 36.9453C207.398 38.0625 207.547 39.0469 207.844 39.8984C208.141 40.7422 208.559 41.3945 209.098 41.8555C209.637 42.3164 210.25 42.5469 210.938 42.5469C211.625 42.5469 212.238 42.3164 212.777 41.8555C213.316 41.3945 213.734 40.7422 214.031 39.8984C214.328 39.0469 214.477 38.0625 214.477 36.9453C214.477 35.8281 214.328 34.8477 214.031 34.0039C213.734 33.1523 213.316 32.4961 212.777 32.0352C212.246 31.5664 211.633 31.3281 210.938 31.3203ZM234.328 35.9375H237.492V28.5078H239.25V47.8438H237.492V37.4609H234.328V43.2969H226.359V30.5H234.328V35.9375ZM228.094 41.8203H232.594V31.9766H228.094V41.8203ZM243.445 48.8984H241.664V28.0625H243.445V48.8984ZM252.234 28.8359C253.266 28.8438 254.188 29.043 255 29.4336C255.82 29.8242 256.461 30.3711 256.922 31.0742C257.391 31.7695 257.625 32.5625 257.625 33.4531C257.625 34.3438 257.391 35.1406 256.922 35.8438C256.461 36.5391 255.82 37.082 255 37.4727C254.188 37.8555 253.266 38.0469 252.234 38.0469C251.188 38.0469 250.254 37.8555 249.434 37.4727C248.613 37.082 247.973 36.5391 247.512 35.8438C247.051 35.1406 246.82 34.3438 246.82 33.4531C246.82 32.5625 247.051 31.7695 247.512 31.0742C247.973 30.3711 248.613 29.8242 249.434 29.4336C250.254 29.043 251.188 28.8438 252.234 28.8359ZM252.234 30.3828C251.547 30.3828 250.926 30.5156 250.371 30.7812C249.824 31.0391 249.395 31.4023 249.082 31.8711C248.77 32.332 248.617 32.8594 248.625 33.4531C248.617 34.0547 248.77 34.5898 249.082 35.0586C249.395 35.5273 249.824 35.8945 250.371 36.1602C250.926 36.418 251.547 36.5469 252.234 36.5469C252.914 36.5469 253.527 36.418 254.074 36.1602C254.629 35.8945 255.062 35.5273 255.375 35.0586C255.688 34.5898 255.844 34.0547 255.844 33.4531C255.844 32.8594 255.688 32.332 255.375 31.8711C255.062 31.4023 254.629 31.0391 254.074 30.7812C253.527 30.5156 252.914 30.3828 252.234 30.3828ZM263.531 38.7734H261.703V28.0625H263.531V38.7734ZM263.531 44.7969H251.836V47.1406H264.281V48.6172H250.031V43.4141H261.703V41.2578H249.984V39.7812H263.531V44.7969ZM286.148 46.3203H267.07V44.7734H275.648V40.8359H269.461V34.4141H281.93V31.1328H269.414V29.6094H283.734V35.9141H271.289V39.3125H284.227V40.8359H277.453V44.7734H286.148V46.3203ZM312.914 46.3203H293.836V44.7734H302.414V40.8359H296.227V34.4141H308.695V31.1328H296.18V29.6094H310.5V35.9141H298.055V39.3125H310.992V40.8359H304.219V44.7734H312.914V46.3203ZM331.008 32.375C331.008 33.5703 330.992 34.6133 330.961 35.5039C330.938 36.3945 330.871 37.4336 330.762 38.6211C330.652 39.8086 330.477 41.1016 330.234 42.5L328.359 42.3125C328.617 40.9922 328.809 39.75 328.934 38.5859C329.059 37.4141 329.133 36.3828 329.156 35.4922C329.188 34.5938 329.203 33.5547 329.203 32.375V31.8125H316.641V30.2891H331.008V32.375ZM333.562 45.8281H314.578V44.3047H333.562V45.8281ZM352.523 43.3203H350.695V28.0859H352.523V43.3203ZM353.18 48.4531H339.07V41.7734H340.898V46.9062H353.18V48.4531ZM341.273 29.5391C342.305 29.5391 343.234 29.7578 344.062 30.1953C344.898 30.625 345.551 31.2305 346.02 32.0117C346.496 32.7852 346.734 33.6641 346.734 34.6484C346.734 35.6484 346.496 36.5391 346.02 37.3203C345.551 38.0938 344.898 38.6992 344.062 39.1367C343.234 39.5664 342.305 39.7812 341.273 39.7812C340.242 39.7812 339.309 39.5664 338.473 39.1367C337.645 38.6992 336.992 38.0938 336.516 37.3203C336.047 36.5391 335.812 35.6484 335.812 34.6484C335.812 33.6641 336.047 32.7852 336.516 32.0117C336.992 31.2305 337.645 30.625 338.473 30.1953C339.309 29.7578 340.242 29.5391 341.273 29.5391ZM341.273 31.1562C340.578 31.1562 339.949 31.3047 339.387 31.6016C338.832 31.8984 338.395 32.3125 338.074 32.8438C337.762 33.375 337.609 33.9766 337.617 34.6484C337.609 35.3281 337.762 35.9375 338.074 36.4766C338.395 37.0078 338.832 37.4219 339.387 37.7188C339.949 38.0156 340.578 38.1641 341.273 38.1641C341.953 38.1641 342.57 38.0156 343.125 37.7188C343.688 37.4219 344.129 37.0078 344.449 36.4766C344.77 35.9375 344.93 35.3281 344.93 34.6484C344.93 33.9844 344.77 33.3867 344.449 32.8555C344.129 32.3242 343.688 31.9102 343.125 31.6133C342.57 31.3086 341.953 31.1562 341.273 31.1562Z" fill="black"/>
<rect x="28" y="11" width="52" height="52" rx="26" fill="#FFC90E"/>
<path d="M36.672 42.936C36.6507 42.936 36.5973 42.952 36.512 42.984C36.4373 43.016 36.3253 43.032 36.176 43.032C35.9947 43.032 35.8133 43.0213 35.632 43C35.4613 42.968 35.3067 42.8987 35.168 42.792C35.072 42.7173 34.976 42.648 34.88 42.584C34.7947 42.52 34.7147 42.4507 34.64 42.376C34.5653 42.2907 34.5067 42.1947 34.464 42.088C34.4213 41.9813 34.4 41.8533 34.4 41.704C34.4 41.544 34.432 41.4267 34.496 41.352C34.56 41.2667 34.624 41.1653 34.688 41.048C34.5707 40.888 34.5067 40.776 34.496 40.712C34.4853 40.6373 34.48 40.5573 34.48 40.472C34.48 40.1947 34.5707 39.944 34.752 39.72C34.9333 39.496 35.1787 39.384 35.488 39.384C35.7973 39.384 36.032 39.4587 36.192 39.608C36.352 39.7467 36.4907 39.9227 36.608 40.136C36.7467 39.9333 36.96 39.832 37.248 39.832C37.3333 39.832 37.4347 39.8533 37.552 39.896C37.68 39.928 37.84 40.024 38.032 40.184C38.0533 40.1093 38.08 40.0453 38.112 39.992C38.1547 39.9387 38.2133 39.8853 38.288 39.832C38.1707 39.7147 38.064 39.5813 37.968 39.432C37.8827 39.272 37.824 39.0853 37.792 38.872C37.4827 38.872 37.1947 38.7813 36.928 38.6C36.6613 38.408 36.4853 38.152 36.4 37.832C36.3147 37.864 36.208 37.8747 36.08 37.864C35.9627 37.8427 35.8507 37.816 35.744 37.784C35.4027 37.6667 35.1467 37.4853 34.976 37.24C34.816 36.984 34.736 36.6853 34.736 36.344C34.736 36.0667 34.7893 35.8053 34.896 35.56C35.0027 35.3147 35.1147 35.1333 35.232 35.016C35.1147 34.792 35.0507 34.5573 35.04 34.312C35.04 34.056 35.0933 33.8267 35.2 33.624C35.3067 33.4107 35.456 33.2347 35.648 33.096C35.8507 32.9573 36.096 32.888 36.384 32.888C36.6507 32.888 36.88 32.9467 37.072 33.064C37.1147 32.9147 37.216 32.7867 37.376 32.68C37.5467 32.5733 37.744 32.52 37.968 32.52C38.2027 32.52 38.416 32.568 38.608 32.664C38.8 32.7493 38.9707 32.8667 39.12 33.016C39.2373 32.9627 39.36 32.9147 39.488 32.872C39.616 32.8187 39.7867 32.8027 40 32.824C40.416 32.8773 40.7253 33.0693 40.928 33.4C41.1413 33.72 41.248 34.0933 41.248 34.52C41.248 34.7013 41.2053 34.8773 41.12 35.048C41.0453 35.2187 40.944 35.368 40.816 35.496C40.6987 35.624 40.56 35.7253 40.4 35.8C40.24 35.8747 40.08 35.912 39.92 35.912C39.8027 35.912 39.712 35.9067 39.648 35.896C39.584 35.8853 39.4987 35.8693 39.392 35.848C39.3387 36.04 39.2533 36.2053 39.136 36.344C39.3707 36.3973 39.536 36.5093 39.632 36.68C39.728 36.8507 39.792 37.048 39.824 37.272C39.984 37.2293 40.1547 37.208 40.336 37.208C40.624 37.2187 40.88 37.32 41.104 37.512C41.3387 37.704 41.456 37.9867 41.456 38.36C41.456 38.3813 41.4507 38.4133 41.44 38.456C41.44 38.488 41.44 38.5573 41.44 38.664C41.6533 38.7813 41.808 38.9573 41.904 39.192C42 39.416 42.048 39.6347 42.048 39.848C42.048 40.1893 41.9787 40.504 41.84 40.792C41.712 41.0693 41.4347 41.3147 41.008 41.528C41.1573 41.7093 41.2427 41.9067 41.264 42.12C41.2853 42.4187 41.184 42.6907 40.96 42.936C40.736 43.1707 40.4373 43.288 40.064 43.288C39.9147 43.288 39.76 43.2613 39.6 43.208C39.4507 43.1653 39.3067 43.0853 39.168 42.968C39.104 43.0853 38.992 43.192 38.832 43.288C38.672 43.3947 38.432 43.464 38.112 43.496C37.8347 43.496 37.5733 43.4533 37.328 43.368C37.0827 43.2933 36.864 43.1493 36.672 42.936ZM44.9648 41.288C44.8581 41.3093 44.7674 41.3093 44.6928 41.288C44.6181 41.2667 44.5381 41.2453 44.4528 41.224C44.2074 41.1387 44.0208 41.0267 43.8928 40.888C43.7754 40.7387 43.6688 40.5467 43.5728 40.312C43.5728 40.3013 43.5621 40.2693 43.5408 40.216C43.5301 40.152 43.5194 40.1093 43.5088 40.088C43.5088 40.0773 43.5034 40.072 43.4928 40.072C43.4928 40.0613 43.4928 40.0453 43.4928 40.024C43.4821 40.0133 43.4768 39.9973 43.4768 39.976V39.336C43.4768 39.3253 43.4821 39.3093 43.4928 39.288C43.4928 39.2667 43.4928 39.2507 43.4928 39.24C43.5034 39.2293 43.5088 39.2187 43.5088 39.208C43.5088 39.1867 43.5141 39.1547 43.5247 39.112C43.5461 39.0693 43.5568 39.0427 43.5568 39.032V39C43.3861 38.872 43.2634 38.7173 43.1888 38.536C43.1248 38.3547 43.0928 38.1573 43.0928 37.944C43.0928 37.8267 43.0981 37.7147 43.1088 37.608C43.1301 37.4907 43.1781 37.3787 43.2528 37.272C43.3061 37.1653 43.3648 37.0693 43.4288 36.984C43.5034 36.888 43.5728 36.7973 43.6368 36.712V36.68C43.5728 36.5627 43.5141 36.44 43.4608 36.312C43.4074 36.1733 43.3808 36.04 43.3808 35.912V35.832C43.4021 35.64 43.4394 35.48 43.4928 35.352C43.5568 35.2133 43.6741 35.0907 43.8448 34.984L44.0368 34.888C44.0474 34.888 44.0581 34.8827 44.0688 34.872C44.0794 34.872 44.0848 34.872 44.0848 34.872C44.0954 34.8613 44.1061 34.856 44.1168 34.856C44.1381 34.856 44.1594 34.8507 44.1808 34.84C44.1914 34.84 44.2074 34.8347 44.2288 34.824H44.8207C44.8207 34.728 44.8261 34.6213 44.8368 34.504C44.8474 34.3867 44.8741 34.2747 44.9168 34.168C45.0448 33.8907 45.2261 33.688 45.4608 33.56C45.6954 33.432 45.9514 33.368 46.2288 33.368C46.3781 33.368 46.5061 33.384 46.6128 33.416C46.7301 33.448 46.8528 33.4907 46.9808 33.544H47.0288C47.1568 33.352 47.3168 33.2133 47.5088 33.128C47.7008 33.0427 47.9034 32.968 48.1168 32.904C48.2661 32.8507 48.4154 32.8187 48.5648 32.808C48.7141 32.7867 48.8741 32.776 49.0448 32.776C49.1194 32.776 49.1888 32.776 49.2528 32.776C49.3168 32.776 49.3914 32.7813 49.4768 32.792C49.5408 32.8133 49.6154 32.8347 49.7008 32.856C49.7861 32.8773 49.8554 32.9093 49.9088 32.952C49.9301 32.952 49.9461 32.968 49.9568 33C49.9781 33.0213 49.9994 33.032 50.0208 33.032C50.2768 33.2773 50.4634 33.512 50.5808 33.736C50.6981 33.9493 50.7568 34.2373 50.7568 34.6C50.7568 34.664 50.7514 34.7387 50.7408 34.824C50.7408 34.8987 50.7301 34.9787 50.7088 35.064C50.6661 35.1707 50.6181 35.256 50.5648 35.32C50.5221 35.384 50.4581 35.464 50.3728 35.56C50.0421 35.9013 49.6154 36.072 49.0928 36.072C49.0074 36.072 48.9328 36.0667 48.8688 36.056C48.8048 36.0347 48.7301 36.0133 48.6448 35.992C48.6341 35.992 48.5914 35.976 48.5168 35.944C48.4528 35.9013 48.4101 35.88 48.3888 35.88H48.3728C48.2981 36.1467 48.1488 36.3387 47.9248 36.456C47.9034 36.4773 47.8768 36.4933 47.8448 36.504C47.8234 36.504 47.7968 36.5147 47.7648 36.536C47.7221 36.5573 47.6848 36.5733 47.6528 36.584H47.1568V37.272C47.1461 37.2933 47.1408 37.3093 47.1408 37.32V37.384C47.0874 37.5227 47.0128 37.6507 46.9168 37.768C46.8208 37.8853 46.7194 37.9973 46.6128 38.104C46.9754 38.2533 47.2154 38.4507 47.3328 38.696C47.4501 38.9413 47.5301 39.2507 47.5728 39.624H47.5888C47.7808 39.592 47.9728 39.576 48.1648 39.576C48.2074 39.576 48.2554 39.576 48.3088 39.576C48.3621 39.576 48.4154 39.5813 48.4688 39.592C48.4901 39.592 48.5221 39.608 48.5648 39.64C48.6181 39.6613 48.6554 39.6827 48.6768 39.704C48.6981 39.704 48.7248 39.72 48.7568 39.752C48.7888 39.784 48.8154 39.8 48.8368 39.8H48.8528L48.9648 39.72C49.0714 39.656 49.1781 39.6187 49.2848 39.608C49.4021 39.5867 49.5194 39.576 49.6368 39.576C49.7648 39.576 49.9141 39.576 50.0848 39.576C50.2554 39.576 50.4048 39.608 50.5328 39.672C50.8314 39.8 51.0394 40.0187 51.1568 40.328C51.2848 40.6373 51.3488 40.9413 51.3488 41.24C51.3488 41.3893 51.3328 41.5227 51.3008 41.64C51.2688 41.7573 51.2101 41.8747 51.1248 41.992C50.9754 42.1733 50.8368 42.3227 50.7088 42.44C50.5808 42.5573 50.3994 42.6373 50.1648 42.68C50.1008 42.7013 50.0048 42.7227 49.8768 42.744C49.7488 42.7547 49.6741 42.76 49.6528 42.76H49.1408C49.1194 42.76 49.0928 42.7547 49.0608 42.744C49.0288 42.7227 49.0021 42.712 48.9808 42.712L48.8848 42.664H48.8528C48.8421 42.664 48.7941 42.712 48.7088 42.808C48.6234 42.8933 48.5594 42.9467 48.5168 42.968C48.3354 43.0747 48.1434 43.144 47.9408 43.176C47.7381 43.208 47.5354 43.224 47.3328 43.224H46.9968C46.8794 43.2027 46.7674 43.176 46.6608 43.144C46.5648 43.112 46.4634 43.0693 46.3568 43.016L46.0048 42.84C45.9834 42.84 45.9461 42.8133 45.8928 42.76C45.5408 42.4507 45.2848 42.0987 45.1248 41.704C45.1034 41.64 45.0821 41.5707 45.0608 41.496C45.0394 41.4213 45.0074 41.352 44.9648 41.288ZM57.6235 42.536C57.3568 42.536 57.0902 42.488 56.8235 42.392C56.5568 42.2853 56.3115 42.1467 56.0875 41.976C55.9595 42.0933 55.8368 42.1733 55.7195 42.216C55.6022 42.2587 55.4528 42.28 55.2715 42.28C54.8022 42.28 54.3808 42.136 54.0075 41.848C53.6448 41.56 53.4208 41.1493 53.3355 40.616C53.1542 40.552 52.9835 40.4667 52.8235 40.36C52.6742 40.2533 52.5355 40.136 52.4075 40.008L52.3755 39.976C52.3648 39.9653 52.3595 39.9493 52.3595 39.928C52.2422 39.672 52.1835 39.4267 52.1835 39.192C52.1835 38.8827 52.2315 38.632 52.3275 38.44C52.4342 38.248 52.6208 38.0507 52.8875 37.848L52.8715 37.8C52.7648 37.6187 52.6688 37.432 52.5835 37.24C52.4982 37.0373 52.4555 36.8293 52.4555 36.616C52.4555 36.3067 52.5728 36.04 52.8075 35.816C53.0528 35.592 53.3302 35.464 53.6395 35.432C53.6928 35.2293 53.7622 35.032 53.8475 34.84C53.9435 34.6373 54.0555 34.456 54.1835 34.296C54.3222 34.136 54.4768 34.008 54.6475 33.912C54.8288 33.816 55.0315 33.768 55.2555 33.768C55.3942 33.768 55.5275 33.8053 55.6555 33.88C55.7835 33.944 55.9648 34.056 56.1995 34.216C56.3488 34.0667 56.5195 33.9493 56.7115 33.864C56.9142 33.768 57.1168 33.72 57.3195 33.72C57.5008 33.72 57.6715 33.7573 57.8315 33.832C57.9915 33.9067 58.1302 33.9973 58.2475 34.104C58.3755 34.2107 58.4768 34.328 58.5515 34.456C58.6262 34.584 58.6742 34.696 58.6955 34.792C58.8235 34.792 58.9568 34.8133 59.0955 34.856C59.2448 34.8987 59.3782 34.952 59.4955 35.016C59.6022 35.08 59.7142 35.1653 59.8315 35.272C59.9488 35.3787 60.0608 35.496 60.1675 35.624C60.2742 35.752 60.3595 35.8907 60.4235 36.04C60.4982 36.1787 60.5355 36.312 60.5355 36.44C60.5355 36.5893 60.4928 36.7333 60.4075 36.872C60.3222 37 60.2262 37.1173 60.1195 37.224C60.3968 37.4373 60.6102 37.672 60.7595 37.928C60.9195 38.1733 60.9995 38.4827 60.9995 38.856C60.9995 39.1333 60.9195 39.3413 60.7595 39.48C60.6102 39.6187 60.4075 39.7147 60.1515 39.768C60.1515 39.7893 60.2048 39.88 60.3115 40.04C60.4288 40.2 60.4875 40.4347 60.4875 40.744C60.4875 40.904 60.4342 41.0533 60.3275 41.192C60.2315 41.32 60.1035 41.4373 59.9435 41.544C59.7835 41.64 59.6075 41.7147 59.4155 41.768C59.2235 41.8107 59.0368 41.8213 58.8555 41.8C58.7702 42.0667 58.6048 42.2587 58.3595 42.376C58.1248 42.4827 57.8795 42.536 57.6235 42.536ZM56.4075 39.768C56.5568 39.928 56.7062 40.04 56.8555 40.104C57.0048 40.168 57.1968 40.2 57.4315 40.2C57.6662 40.2 57.8955 40.136 58.1195 40.008C58.3435 39.8693 58.4555 39.6613 58.4555 39.384C58.4555 39.32 58.4448 39.272 58.4235 39.24C58.4022 39.1973 58.3488 39.176 58.2635 39.176C58.1995 39.176 58.1568 39.2027 58.1355 39.256C58.1142 39.2987 58.0982 39.3467 58.0875 39.4C58.0768 39.4213 58.0662 39.448 58.0555 39.48C58.0555 39.5013 58.0448 39.5227 58.0235 39.544C57.9488 39.64 57.8582 39.7093 57.7515 39.752C57.6448 39.784 57.5382 39.8 57.4315 39.8C57.1862 39.8 56.9888 39.7467 56.8395 39.64C56.7008 39.5227 56.6315 39.3253 56.6315 39.048C56.6315 39.0267 56.6422 38.984 56.6635 38.92C56.6742 38.8987 56.7008 38.872 56.7435 38.84C56.7968 38.808 56.8235 38.7813 56.8235 38.76C56.8235 38.696 56.7755 38.632 56.6795 38.568C56.5942 38.504 56.5088 38.472 56.4235 38.472C56.2422 38.4827 56.1142 38.5147 56.0395 38.568C55.9755 38.6107 55.9435 38.6747 55.9435 38.76C55.9435 38.7813 55.9755 38.808 56.0395 38.84C56.1142 38.872 56.1568 38.8987 56.1675 38.92C56.1888 38.984 56.1995 39.0267 56.1995 39.048C56.1995 39.2187 56.1622 39.3627 56.0875 39.48C56.0235 39.5973 55.8955 39.6667 55.7035 39.688C55.5542 39.6987 55.4422 39.6987 55.3675 39.688C55.2928 39.6667 55.2342 39.64 55.1915 39.608C55.1595 39.5653 55.1275 39.5173 55.0955 39.464C55.0635 39.4107 55.0262 39.352 54.9835 39.288C54.9302 39.2133 54.8555 39.2027 54.7595 39.256C54.6635 39.3093 54.6155 39.368 54.6155 39.432C54.6155 39.4533 54.6155 39.4853 54.6155 39.528C54.6262 39.56 54.6422 39.5867 54.6635 39.608C54.7062 39.6613 54.7488 39.72 54.7915 39.784C54.8448 39.8373 54.9088 39.8853 54.9835 39.928C55.0582 39.9707 55.1488 40.0027 55.2555 40.024C55.3622 40.0453 55.4955 40.056 55.6555 40.056C55.7835 40.056 55.9168 40.0293 56.0555 39.976C56.2048 39.9227 56.3222 39.8533 56.4075 39.768ZM57.4155 37.448C57.4155 37.544 57.4528 37.6187 57.5275 37.672C57.6022 37.7253 57.6768 37.752 57.7515 37.752C57.8368 37.752 57.9168 37.6987 57.9915 37.592C58.0768 37.4747 58.0875 37.384 58.0235 37.32L57.9755 37.336C57.9115 37.2293 57.8315 37.176 57.7355 37.176C57.6502 37.176 57.5755 37.2027 57.5115 37.256C57.4475 37.2987 57.4155 37.3627 57.4155 37.448ZM54.9515 37.304C54.9515 37.3893 54.9728 37.4587 55.0155 37.512C55.0582 37.5653 55.1222 37.592 55.2075 37.592C55.2928 37.592 55.3568 37.5653 55.3995 37.512C55.4422 37.4587 55.4635 37.3893 55.4635 37.304C55.4635 37.2187 55.4262 37.16 55.3515 37.128C55.2875 37.0853 55.2342 37.064 55.1915 37.064H55.0635C54.9888 37.1173 54.9515 37.1973 54.9515 37.304ZM63.2548 42.056C63.2761 41.928 63.3134 41.8 63.3668 41.672C63.4201 41.5333 63.4894 41.4213 63.5748 41.336L63.5428 41.32C63.1054 41.0107 62.9081 40.5787 62.9508 40.024C62.9614 39.8853 62.9774 39.768 62.9988 39.672C63.0308 39.5653 63.0681 39.4693 63.1108 39.384C63.1641 39.2987 63.2174 39.2133 63.2708 39.128C63.3348 39.032 63.4094 38.9253 63.4948 38.808C63.4948 38.7867 63.5001 38.7707 63.5108 38.76C63.5108 38.7493 63.5161 38.744 63.5268 38.744L63.5108 38.728L63.3988 38.68C63.2388 38.5627 63.1161 38.44 63.0308 38.312C62.9561 38.1733 62.8868 38.0133 62.8228 37.832C62.7908 37.7467 62.7694 37.672 62.7588 37.608C62.7588 37.544 62.7588 37.4693 62.7588 37.384C62.7801 37.1707 62.8228 36.9893 62.8868 36.84C62.9614 36.6907 63.0628 36.5413 63.1908 36.392C63.0094 36.2747 62.8708 36.0987 62.7747 35.864C62.6894 35.6293 62.6574 35.4053 62.6788 35.192C62.6894 34.904 62.7801 34.6373 62.9508 34.392C63.1214 34.136 63.4094 34.008 63.8148 34.008C63.8681 33.7413 64.0228 33.5493 64.2788 33.432C64.5454 33.304 64.8388 33.2507 65.1588 33.272C65.3401 33.2827 65.5108 33.3573 65.6708 33.496C65.8308 33.624 65.9748 33.7573 66.1028 33.896C66.2094 33.8213 66.3321 33.784 66.4708 33.784C66.5561 33.7947 66.6414 33.816 66.7268 33.848C66.8121 33.88 66.8868 33.9173 66.9508 33.96C67.2174 34.12 67.4041 34.344 67.5108 34.632C67.6281 34.92 67.6761 35.2133 67.6548 35.512C67.6548 35.5653 67.6441 35.624 67.6228 35.688C67.6014 35.7413 67.5908 35.7947 67.5908 35.848V35.864C67.6121 35.8747 67.6708 35.9067 67.7668 35.96C67.8628 36.0133 67.9214 36.0453 67.9428 36.056C68.1668 36.1733 68.3108 36.3227 68.3748 36.504C68.4494 36.6747 68.5134 36.8827 68.5668 37.128C68.5561 37.1387 68.5508 37.1653 68.5508 37.208C68.5614 37.2507 68.5668 37.2827 68.5668 37.304C68.7588 37.2933 68.9348 37.336 69.0948 37.432C69.2548 37.528 69.3881 37.6507 69.4948 37.8C69.5161 37.8107 69.5428 37.848 69.5748 37.912C69.6068 37.9653 69.6281 38.0027 69.6388 38.024L69.6868 38.136L69.7028 38.168L70.0548 37.928V37.912C69.9054 37.752 69.7828 37.592 69.6868 37.432C69.5908 37.2613 69.5481 37.0587 69.5588 36.824C69.5694 36.6747 69.5961 36.5147 69.6388 36.344C69.6814 36.1733 69.7561 36.024 69.8628 35.896C69.6601 35.7467 69.5268 35.5707 69.4628 35.368C69.3988 35.1547 69.3774 34.9253 69.3988 34.68C69.4201 34.3067 69.5641 34.024 69.8308 33.832C70.0974 33.6293 70.4174 33.5387 70.7908 33.56C70.9508 33.56 71.1054 33.6027 71.2548 33.688C71.4148 33.7627 71.5588 33.864 71.6868 33.992C71.8148 34.12 71.9161 34.2693 71.9908 34.44C72.0654 34.6 72.1028 34.76 72.1028 34.92C72.1028 35.0053 72.0868 35.0907 72.0548 35.176C72.0228 35.2507 72.0068 35.3307 72.0068 35.416C72.0068 35.4373 72.0121 35.4587 72.0228 35.48C72.4174 35.7147 72.6574 35.9493 72.7428 36.184C72.8281 36.4187 72.8654 36.6533 72.8548 36.888C72.8334 37.1333 72.7534 37.3307 72.6148 37.48C72.4868 37.6293 72.3321 37.784 72.1508 37.944C72.3641 38.072 72.5188 38.264 72.6148 38.52C72.7108 38.776 72.7534 39.0267 72.7428 39.272C72.7214 39.5707 72.6201 39.8053 72.4388 39.976C72.2574 40.1467 72.0281 40.2533 71.7508 40.296C71.8148 40.4027 71.8681 40.5147 71.9108 40.632C71.9641 40.7493 71.9801 40.9093 71.9588 41.112C71.9268 41.5067 71.7934 41.7947 71.5588 41.976C71.3241 42.1573 71.0148 42.2587 70.6308 42.28C70.1081 42.3013 69.6388 42.2053 69.2228 41.992C68.8174 41.7787 68.5561 41.3787 68.4388 40.792C68.1614 40.792 67.9214 40.744 67.7188 40.648C67.5161 40.552 67.3134 40.392 67.1108 40.168L67.0788 40.136C67.0681 40.1253 67.0628 40.1093 67.0628 40.088C66.9668 39.9067 66.8974 39.72 66.8548 39.528C66.8228 39.3253 66.8174 39.1173 66.8388 38.904C66.6894 38.8827 66.5508 38.84 66.4227 38.776C66.3054 38.712 66.1881 38.6373 66.0708 38.552C66.1241 38.8293 66.1188 39.112 66.0548 39.4C66.0014 39.688 65.8841 39.912 65.7028 40.072C65.9374 40.1893 66.0974 40.392 66.1828 40.68C66.2681 40.9573 66.3054 41.2187 66.2948 41.464C66.2841 41.6453 66.2681 41.832 66.2468 42.024C66.2254 42.2053 66.1561 42.376 66.0388 42.536C65.9214 42.6853 65.7348 42.8133 65.4788 42.92C65.2334 43.016 64.8814 43.0693 64.4228 43.08C64.1988 43.0693 64.0121 43.032 63.8628 42.968C63.7134 42.904 63.5961 42.824 63.5108 42.728C63.4254 42.632 63.3614 42.5253 63.3188 42.408C63.2761 42.2907 63.2548 42.1733 63.2548 42.056Z" fill="#FCFCFC"/>
</svg>
