<svg viewBox="0 0 544 76" fill="none" xmlns="http://www.w3.org/2000/svg">
<rect x="0.5" y="0.5" width="543" height="75" rx="9.5" fill="#FEFEFE" stroke="#E4E4E4"/>

<rect width="70" height="70" transform="translate(19 3)" fill="#FEFEFE"/>
<circle cx="54" cy="38" r="35" fill="#F8F8F8"/>

<path d="M223.828 28.3047V30.1562C223.828 32.1484 223.828 34.3047 223.242 37.3047H226.266V39.1328H217.758V48.0156H215.508V39.1328H207.117V37.3047H220.992C221.625 34.3164 221.625 32.1133 221.625 30.1562V30.1328H209.461V28.3047H223.828ZM244.641 27.8828V29.2656C244.641 30.6602 244.641 32.418 244.195 34.7031H247.078V36.4844H227.859V34.7031H241.969C242.391 32.5703 242.438 30.9648 242.438 29.6641H230.273V27.8828H244.641ZM244.664 38.3594V43.8672H232.359V46H245.203V47.7812H230.133V42.1562H242.461V40.1406H230.109V38.3594H244.664ZM267.82 43.6094V45.4844H248.602V43.6094H257.062V39.9297H250.945V33.25H263.273V30.2969H250.898V28.4688H265.477V35.0312H253.148V38.1016H265.969V39.9297H259.266V43.6094H267.82ZM294.422 43.6094V45.4844H275.203V43.6094H283.664V39.9297H277.547V33.25H289.875V30.2969H277.5V28.4688H292.078V35.0312H279.75V38.1016H292.57V39.9297H285.867V43.6094H294.422ZM312.586 29.125V31.375C312.586 34.0938 312.586 37.0469 311.812 41.5234L309.539 41.3125C310.383 37.1172 310.383 34.0234 310.383 31.375V30.9531H298.008V29.125H312.586ZM315.094 43.1641V45.0156H295.945V43.1641H315.094ZM334.102 27.0156V42.2734H331.875V27.0156H334.102ZM334.734 45.7422V47.5469H320.367V40.7266H322.617V45.7422H334.734ZM322.711 28.4219C325.875 28.4219 328.289 30.5781 328.289 33.625C328.289 36.7188 325.875 38.8516 322.711 38.8516C319.547 38.8516 317.109 36.7188 317.109 33.625C317.109 30.5781 319.547 28.4219 322.711 28.4219ZM322.711 30.3672C320.742 30.3672 319.289 31.7031 319.289 33.625C319.289 35.5938 320.742 36.9062 322.711 36.9062C324.633 36.9062 326.109 35.5938 326.109 33.625C326.109 31.7031 324.633 30.3672 322.711 30.3672Z" fill="black"/>
<path fill-rule="evenodd" clip-rule="evenodd" d="M76.2946 38.3302C76.2946 36.717 76.1498 35.1658 75.8809 33.6768H54.4546V42.4769H66.6982C66.1708 45.3206 64.568 47.73 62.1586 49.3432V55.0514H69.511C73.8128 51.0908 76.2946 45.2586 76.2946 38.3302Z" fill="#4285F4"/>
<path fill-rule="evenodd" clip-rule="evenodd" d="M54.4547 60.5628C60.5972 60.5628 65.747 58.5256 69.5111 55.051L62.1587 49.3429C60.1215 50.7079 57.5156 51.5145 54.4547 51.5145C48.5294 51.5145 43.5141 47.5125 41.7251 42.1353H34.1245V48.0296C37.8679 55.4647 45.5616 60.5628 54.4547 60.5628Z" fill="#34A853"/>
<path fill-rule="evenodd" clip-rule="evenodd" d="M41.7249 42.1355C41.2699 40.7705 41.0114 39.3124 41.0114 37.813C41.0114 36.3136 41.2699 34.8555 41.7249 33.4905V27.5962H34.1244C32.5836 30.6674 31.7046 34.142 31.7046 37.813C31.7046 41.484 32.5836 44.9586 34.1244 48.0298L41.7249 42.1355Z" fill="#FBBC05"/>
<path fill-rule="evenodd" clip-rule="evenodd" d="M54.4547 24.1115C57.7948 24.1115 60.7937 25.2594 63.1514 27.5137L69.6765 20.9886C65.7367 17.3175 60.5869 15.0632 54.4547 15.0632C45.5616 15.0632 37.8679 20.1613 34.1245 27.5964L41.7251 33.4907C43.5141 28.1135 48.5294 24.1115 54.4547 24.1115Z" fill="#EA4335"/>
</svg>
