<svg viewBox="0 0 544 76" fill="none" xmlns="http://www.w3.org/2000/svg">
<rect x="0.5" y="0.5" width="543" height="75" rx="9.5" fill="#F8F8F8" stroke="#E4E4E4"/>
<path d="M223.828 30.1562C223.828 31.5078 223.793 32.707 223.723 33.7539C223.66 34.793 223.5 35.9766 223.242 37.3047H226.266V39.1328H217.758V48.0156H215.508V39.1328H207.117V37.3047H220.992C221.273 35.9844 221.449 34.8008 221.52 33.7539C221.59 32.6992 221.625 31.5 221.625 30.1562V30.1328H209.461V28.3047H223.828V30.1562ZM244.641 29.2656C244.641 30.2578 244.613 31.1602 244.559 31.9727C244.512 32.7852 244.391 33.6953 244.195 34.7031H247.078V36.4844H227.859V34.7031H241.957C242.152 33.7422 242.281 32.8672 242.344 32.0781C242.406 31.2891 242.438 30.4844 242.438 29.6641H230.273V27.8828H244.641V29.2656ZM244.664 43.8672H232.359V46H245.203V47.7812H230.133V42.1562H242.461V40.1406H230.109V38.3594H244.664V43.8672ZM267.82 45.4844H248.602V43.6094H257.062V39.9297H250.945V33.25H263.273V30.2969H250.898V28.4688H265.477V35.0312H253.148V38.1016H265.969V39.9297H259.266V43.6094H267.82V45.4844ZM294.422 45.4844H275.203V43.6094H283.664V39.9297H277.547V33.25H289.875V30.2969H277.5V28.4688H292.078V35.0312H279.75V38.1016H292.57V39.9297H285.867V43.6094H294.422V45.4844ZM312.586 31.375C312.586 32.6016 312.57 33.6641 312.539 34.5625C312.516 35.4609 312.449 36.5 312.34 37.6797C312.23 38.8516 312.055 40.1328 311.812 41.5234L309.539 41.3125C309.797 40.0156 309.988 38.7891 310.113 37.6328C310.238 36.4766 310.312 35.4492 310.336 34.5508C310.367 33.6445 310.383 32.5859 310.383 31.375V30.9531H298.008V29.125H312.586V31.375ZM315.094 45.0156H295.945V43.1641H315.094V45.0156ZM334.102 42.2734H331.875V27.0156H334.102V42.2734ZM334.734 47.5469H320.367V40.7266H322.617V45.7422H334.734V47.5469ZM322.711 28.4219C323.758 28.4219 324.703 28.6445 325.547 29.0898C326.398 29.5352 327.066 30.1523 327.551 30.9414C328.043 31.7305 328.289 32.625 328.289 33.625C328.289 34.6406 328.043 35.5469 327.551 36.3438C327.066 37.1328 326.398 37.75 325.547 38.1953C324.703 38.6328 323.758 38.8516 322.711 38.8516C321.664 38.8516 320.715 38.6328 319.863 38.1953C319.012 37.75 318.34 37.1289 317.848 36.332C317.355 35.5352 317.109 34.6328 317.109 33.625C317.109 32.625 317.355 31.7305 317.848 30.9414C318.34 30.1523 319.012 29.5352 319.863 29.0898C320.715 28.6445 321.664 28.4219 322.711 28.4219ZM322.711 30.3672C322.062 30.3672 321.477 30.5078 320.953 30.7891C320.438 31.0625 320.031 31.4453 319.734 31.9375C319.438 32.4297 319.289 32.9922 319.289 33.625C319.289 34.2734 319.434 34.8477 319.723 35.3477C320.02 35.8398 320.426 36.2227 320.941 36.4961C321.465 36.7695 322.055 36.9062 322.711 36.9062C323.352 36.9062 323.93 36.7695 324.445 36.4961C324.961 36.2227 325.367 35.8359 325.664 35.3359C325.961 34.8359 326.109 34.2656 326.109 33.625C326.109 33 325.961 32.4414 325.664 31.9492C325.367 31.4492 324.957 31.0625 324.434 30.7891C323.918 30.5078 323.344 30.3672 322.711 30.3672Z" fill="black"/>
<rect width="70" height="70" transform="translate(19 3)" fill="#F8F8F8"/>
<circle cx="54" cy="38" r="35" fill="#F8F8F8"/>
<path fill-rule="evenodd" clip-rule="evenodd" d="M76.2946 38.3302C76.2946 36.717 76.1498 35.1658 75.8809 33.6768H54.4546V42.4769H66.6982C66.1708 45.3206 64.568 47.73 62.1586 49.3432V55.0514H69.511C73.8128 51.0908 76.2946 45.2586 76.2946 38.3302Z" fill="#4285F4"/>
<path fill-rule="evenodd" clip-rule="evenodd" d="M54.4547 60.5628C60.5972 60.5628 65.747 58.5256 69.5111 55.051L62.1587 49.3429C60.1215 50.7079 57.5156 51.5145 54.4547 51.5145C48.5294 51.5145 43.5141 47.5125 41.7251 42.1353H34.1245V48.0296C37.8679 55.4647 45.5616 60.5628 54.4547 60.5628Z" fill="#34A853"/>
<path fill-rule="evenodd" clip-rule="evenodd" d="M41.7249 42.1355C41.2699 40.7705 41.0114 39.3124 41.0114 37.813C41.0114 36.3136 41.2699 34.8555 41.7249 33.4905V27.5962H34.1244C32.5836 30.6674 31.7046 34.142 31.7046 37.813C31.7046 41.484 32.5836 44.9586 34.1244 48.0298L41.7249 42.1355Z" fill="#FBBC05"/>
<path fill-rule="evenodd" clip-rule="evenodd" d="M54.4547 24.1115C57.7948 24.1115 60.7937 25.2594 63.1514 27.5137L69.6765 20.9886C65.7367 17.3175 60.5869 15.0632 54.4547 15.0632C45.5616 15.0632 37.8679 20.1613 34.1245 27.5964L41.7251 33.4907C43.5141 28.1135 48.5294 24.1115 54.4547 24.1115Z" fill="#EA4335"/>
</svg>
