<svg viewBox="0 0 544 76" fill="none" xmlns="http://www.w3.org/2000/svg">
<rect width="544" height="76" rx="10" fill="#FEE500"/>
<path d="M207.695 29.125C207.688 31.3594 207.402 33.3984 206.84 35.2422C206.285 37.0859 205.305 38.8047 203.898 40.3984C202.492 41.9922 200.562 43.3906 198.109 44.5938L196.891 42.9297C198.742 42.0234 200.262 41.0078 201.449 39.8828C202.637 38.7578 203.555 37.5117 204.203 36.1445L197.336 36.7891L197.008 34.8672L204.883 34.3398C205.188 33.293 205.383 32.1562 205.469 30.9297H198.109V29.125H207.695ZM213.133 35.3828H216.391V37.2109H213.133V47.9688H210.906V26.9922H213.133V35.3828ZM228.438 29.125C228.43 31.3594 228.145 33.3984 227.582 35.2422C227.027 37.0859 226.047 38.8047 224.641 40.3984C223.234 41.9922 221.305 43.3906 218.852 44.5938L217.633 42.9297C219.484 42.0234 221.004 41.0078 222.191 39.8828C223.379 38.7578 224.297 37.5117 224.945 36.1445L218.078 36.7891L217.75 34.8672L225.625 34.3398C225.93 33.293 226.125 32.1562 226.211 30.9297H218.852V29.125H228.438ZM233.875 35.3828H237.133V37.2109H233.875V47.9688H231.648V26.9922H233.875V35.3828ZM247.82 28.2578C249.312 28.2656 250.645 28.5039 251.816 28.9727C252.996 29.4336 253.918 30.0859 254.582 30.9297C255.246 31.7656 255.578 32.7344 255.578 33.8359C255.578 34.8672 255.297 35.7852 254.734 36.5898C254.18 37.3867 253.398 38.0273 252.391 38.5117C251.391 38.9883 250.234 39.2812 248.922 39.3906V43.5156H257.477V45.3672H238.258V43.5156H246.719V39.3906C245.414 39.2812 244.262 38.9883 243.262 38.5117C242.262 38.0273 241.48 37.3867 240.918 36.5898C240.363 35.7852 240.086 34.8672 240.086 33.8359C240.086 32.7344 240.418 31.7656 241.082 30.9297C241.746 30.0859 242.664 29.4336 243.836 28.9727C245.008 28.5039 246.336 28.2656 247.82 28.2578ZM247.82 30.0859C246.75 30.0781 245.789 30.2305 244.938 30.543C244.094 30.8477 243.434 31.2891 242.957 31.8672C242.48 32.4375 242.242 33.0938 242.242 33.8359C242.242 34.6094 242.48 35.2852 242.957 35.8633C243.434 36.4414 244.094 36.8867 244.938 37.1992C245.781 37.5117 246.742 37.6719 247.82 37.6797C248.906 37.6719 249.871 37.5117 250.715 37.1992C251.566 36.8867 252.23 36.4414 252.707 35.8633C253.184 35.2852 253.422 34.6094 253.422 33.8359C253.422 33.0938 253.184 32.4375 252.707 31.8672C252.23 31.2891 251.566 30.8477 250.715 30.543C249.863 30.2305 248.898 30.0781 247.82 30.0859ZM278.219 45.4844H259V43.6094H267.461V39.9297H261.344V33.25H273.672V30.2969H261.297V28.4688H275.875V35.0312H263.547V38.1016H276.367V39.9297H269.664V43.6094H278.219V45.4844ZM304.82 45.4844H285.602V43.6094H294.062V39.9297H287.945V33.25H300.273V30.2969H287.898V28.4688H302.477V35.0312H290.148V38.1016H302.969V39.9297H296.266V43.6094H304.82V45.4844ZM322.984 31.375C322.984 32.6016 322.969 33.6641 322.938 34.5625C322.914 35.4609 322.848 36.5 322.738 37.6797C322.629 38.8516 322.453 40.1328 322.211 41.5234L319.938 41.3125C320.195 40.0156 320.387 38.7891 320.512 37.6328C320.637 36.4766 320.711 35.4492 320.734 34.5508C320.766 33.6445 320.781 32.5859 320.781 31.375V30.9531H308.406V29.125H322.984V31.375ZM325.492 45.0156H306.344V43.1641H325.492V45.0156ZM344.5 42.2734H342.273V27.0156H344.5V42.2734ZM345.133 47.5469H330.766V40.7266H333.016V45.7422H345.133V47.5469ZM333.109 28.4219C334.156 28.4219 335.102 28.6445 335.945 29.0898C336.797 29.5352 337.465 30.1523 337.949 30.9414C338.441 31.7305 338.688 32.625 338.688 33.625C338.688 34.6406 338.441 35.5469 337.949 36.3438C337.465 37.1328 336.797 37.75 335.945 38.1953C335.102 38.6328 334.156 38.8516 333.109 38.8516C332.062 38.8516 331.113 38.6328 330.262 38.1953C329.41 37.75 328.738 37.1289 328.246 36.332C327.754 35.5352 327.508 34.6328 327.508 33.625C327.508 32.625 327.754 31.7305 328.246 30.9414C328.738 30.1523 329.41 29.5352 330.262 29.0898C331.113 28.6445 332.062 28.4219 333.109 28.4219ZM333.109 30.3672C332.461 30.3672 331.875 30.5078 331.352 30.7891C330.836 31.0625 330.43 31.4453 330.133 31.9375C329.836 32.4297 329.688 32.9922 329.688 33.625C329.688 34.2734 329.832 34.8477 330.121 35.3477C330.418 35.8398 330.824 36.2227 331.34 36.4961C331.863 36.7695 332.453 36.9062 333.109 36.9062C333.75 36.9062 334.328 36.7695 334.844 36.4961C335.359 36.2227 335.766 35.8359 336.062 35.3359C336.359 34.8359 336.508 34.2656 336.508 33.625C336.508 33 336.359 32.4414 336.062 31.9492C335.766 31.4492 335.355 31.0625 334.832 30.7891C334.316 30.5078 333.742 30.3672 333.109 30.3672Z" fill="black"/>
<circle cx="54" cy="37" r="35" fill="#FEE500"/>
<path d="M54.1013 18.8921C43.2121 18.8921 34.4304 25.9173 34.4304 34.4461C34.4304 39.982 38.0836 44.8294 43.5633 47.5974L41.7086 54.5244C41.6737 54.6283 41.6683 54.7397 41.6931 54.8464C41.7179 54.9531 41.772 55.0508 41.8491 55.1285C41.9617 55.2278 42.1065 55.2827 42.2566 55.2831C42.3811 55.2731 42.4991 55.2239 42.5938 55.1426L50.5746 49.7613C51.7526 49.9239 52.9402 50.0083 54.1294 50.0141C65.0046 50.0141 73.8003 42.9888 73.8003 34.4461C73.8003 25.9033 64.9765 18.8921 54.1013 18.8921Z" fill="#392020"/>
<path d="M41.3146 31.9873H39.1648C38.8984 31.995 38.6352 31.9268 38.4061 31.7905C38.3044 31.7268 38.2169 31.6427 38.1492 31.5436C38.0815 31.4444 38.035 31.3324 38.0127 31.2144C38.0059 31.1396 38.0059 31.0645 38.0127 30.9897C38.006 30.8498 38.0332 30.7103 38.0919 30.5831C38.1506 30.4559 38.2391 30.3448 38.3499 30.2591C38.5949 30.0817 38.8905 29.988 39.1929 29.992H45.6703C45.9388 29.9826 46.2038 30.0562 46.429 30.2028C46.5331 30.2637 46.6224 30.3471 46.6905 30.4467C46.7585 30.5463 46.8036 30.6598 46.8224 30.7789C46.8293 30.849 46.8293 30.9196 46.8224 30.9897C46.8291 31.1317 46.8019 31.2731 46.7433 31.4026C46.6847 31.532 46.5963 31.6456 46.4852 31.7343C46.2462 31.9115 45.9534 32.0009 45.6562 31.9873H43.5767V39.3779C43.5852 39.5354 43.5608 39.6928 43.5052 39.8403C43.4495 39.9879 43.3639 40.1223 43.2536 40.235C43.1478 40.3427 43.0207 40.4272 42.8803 40.4828C42.7399 40.5385 42.5895 40.5641 42.4386 40.5581C42.1748 40.5656 41.9165 40.4813 41.708 40.3194C41.5095 40.1612 41.3748 39.9365 41.3286 39.687C41.3148 39.5844 41.3148 39.4805 41.3286 39.3779L41.3146 31.9873Z" fill="#FEE500"/>
<path d="M47.4426 30.5398C47.5044 30.3086 47.6496 30.1084 47.8501 29.9778C48.0638 29.8566 48.3073 29.7982 48.5526 29.8092H49.0866C49.3469 29.7998 49.6048 29.8631 49.8313 29.9918C50.0713 30.1532 50.2418 30.399 50.309 30.6803L53.1191 38.6189C53.192 38.826 53.2529 39.0372 53.3018 39.2513C53.3066 39.3402 53.3066 39.4293 53.3018 39.5182C53.3065 39.6551 53.2813 39.7915 53.2279 39.9176C53.1745 40.0438 53.0942 40.1569 52.9926 40.2488C52.8942 40.3497 52.776 40.4293 52.6455 40.4825C52.5149 40.5356 52.3748 40.5613 52.2339 40.5579C52.0172 40.5795 51.7995 40.5275 51.616 40.4102C51.4325 40.293 51.2938 40.1173 51.2223 39.9116L50.6321 38.1834H46.9368L46.3467 39.9116C46.2769 40.1214 46.1365 40.3004 45.9495 40.4183C45.7625 40.5362 45.5403 40.5855 45.321 40.5579C45.0834 40.5641 44.8507 40.4898 44.6606 40.3471C44.4754 40.1999 44.3505 39.9901 44.3094 39.7571C44.3019 39.6777 44.3019 39.5976 44.3094 39.5182C44.2852 39.3787 44.2852 39.2362 44.3094 39.0968C44.3094 38.9422 44.4077 38.7735 44.4639 38.6189L47.4426 30.5398ZM48.8477 32.3805L47.5129 36.5957H50.1685L48.8477 32.3805Z" fill="#FEE500"/>
<path d="M53.6235 30.9897C53.6093 30.6743 53.7204 30.3662 53.9326 30.1326C54.0405 30.0237 54.1701 29.9387 54.3129 29.883C54.4557 29.8274 54.6085 29.8022 54.7616 29.8093C55.0248 29.8062 55.2817 29.8902 55.4923 30.0482C55.6874 30.213 55.817 30.4423 55.8576 30.6945C55.8714 30.7923 55.8714 30.8918 55.8576 30.9897V38.3803H59.7215C59.9893 38.3768 60.2526 38.4498 60.4802 38.5909C60.5825 38.654 60.6704 38.738 60.7382 38.8372C60.806 38.9365 60.8521 39.0488 60.8737 39.167C60.8737 39.167 60.8737 39.3076 60.8737 39.3778C60.8803 39.5178 60.8532 39.6571 60.7945 39.7843C60.7358 39.9115 60.6473 40.0228 60.5364 40.1085C60.2915 40.2859 59.9958 40.3794 59.6934 40.3754H54.9443C54.6418 40.3948 54.3412 40.3161 54.0872 40.1507C53.86 39.9808 53.7087 39.7285 53.6657 39.4482C53.6554 39.2938 53.6554 39.1388 53.6657 38.9844L53.6235 30.9897Z" fill="#FEE500"/>
<path d="M61.1269 30.9899C61.1185 30.6755 61.2289 30.3695 61.4361 30.1328C61.6466 29.9415 61.9168 29.8285 62.2009 29.8131C62.485 29.7977 62.7657 29.8809 62.9957 30.0484C63.1951 30.2118 63.3296 30.4409 63.375 30.6947C63.382 30.7929 63.382 30.8916 63.375 30.9899V34.4322L66.9298 30.3294C67.0668 30.1894 67.2123 30.0581 67.3654 29.9361C67.5097 29.8501 67.6752 29.8062 67.8431 29.8095C68.0887 29.8082 68.3289 29.8817 68.5316 30.0203C68.6271 30.0846 68.7087 30.1676 68.7715 30.2642C68.8343 30.3608 68.8769 30.4689 68.8969 30.5824C68.9026 30.6102 68.9026 30.6389 68.8969 30.6667C68.8901 30.6992 68.8901 30.7326 68.8969 30.765C68.8965 30.9129 68.8577 31.0581 68.7845 31.1866C68.71 31.3226 68.6204 31.4497 68.5176 31.5658L66.1852 34.1231L68.9953 38.4788V38.6193C69.1412 38.8206 69.2549 39.0435 69.3325 39.2798V39.3499C69.3488 39.5127 69.3253 39.6771 69.2641 39.8288C69.2029 39.9805 69.1059 40.1151 68.9812 40.2211C68.7468 40.3982 68.4601 40.4922 68.1663 40.4881C67.9711 40.4962 67.7772 40.4524 67.6043 40.3615C67.4171 40.236 67.2629 40.0674 67.1547 39.8698L64.5412 35.6546L63.2907 36.9614V39.3077C63.2992 39.6221 63.1888 39.9281 62.9816 40.1648C62.8706 40.2733 62.7385 40.3581 62.5935 40.4137C62.4485 40.4692 62.2937 40.4946 62.1386 40.4881C61.8793 40.4935 61.6262 40.4091 61.422 40.2492C61.2235 40.091 61.0888 39.8665 61.0426 39.617C61.0288 39.5144 61.0288 39.4103 61.0426 39.3077L61.1269 30.9899Z" fill="#FEE500"/>
</svg>
