<svg viewBox="0 0 544 76" fill="none" xmlns="http://www.w3.org/2000/svg">
<rect width="544" height="76" rx="10" fill="#00C73C"/>
<path d="M199.961 40.8438C201.148 40.8281 202.258 40.7734 203.289 40.6797C204.328 40.5781 205.391 40.4141 206.477 40.1875L206.781 42.0859C205.5 42.3516 204.262 42.5312 203.066 42.625C201.879 42.7188 200.562 42.7656 199.117 42.7656H197.734V29.1719H199.961V40.8438ZM214.82 47.9922H212.711V26.9922H214.82V47.9922ZM210.32 46.9609H208.211V35.7344H203.617V33.9062H208.211V27.4609H210.32V46.9609ZM234.906 48.0391H232.68V26.9922H234.906V48.0391ZM223.68 28.5625C224.719 28.5625 225.648 28.8672 226.469 29.4766C227.289 30.0781 227.93 30.9375 228.391 32.0547C228.859 33.1641 229.094 34.4531 229.094 35.9219C229.094 37.3984 228.859 38.6953 228.391 39.8125C227.93 40.9297 227.289 41.793 226.469 42.4023C225.648 43.0039 224.719 43.3047 223.68 43.3047C222.625 43.3047 221.688 43.0039 220.867 42.4023C220.047 41.793 219.402 40.9336 218.934 39.8242C218.473 38.707 218.242 37.4062 218.242 35.9219C218.242 34.4453 218.473 33.1523 218.934 32.043C219.402 30.9258 220.047 30.0664 220.867 29.4648C221.688 28.8633 222.625 28.5625 223.68 28.5625ZM223.68 30.5547C223.031 30.5547 222.457 30.7734 221.957 31.2109C221.465 31.6484 221.082 32.2734 220.809 33.0859C220.535 33.8906 220.398 34.8359 220.398 35.9219C220.398 37.0156 220.535 37.9688 220.809 38.7812C221.082 39.5938 221.465 40.2188 221.957 40.6562C222.457 41.0938 223.031 41.3125 223.68 41.3125C224.32 41.3125 224.887 41.0938 225.379 40.6562C225.871 40.2188 226.254 39.5938 226.527 38.7812C226.801 37.9688 226.938 37.0156 226.938 35.9219C226.938 34.8359 226.801 33.8906 226.527 33.0859C226.254 32.2734 225.871 31.6484 225.379 31.2109C224.887 30.7734 224.32 30.5547 223.68 30.5547ZM255.766 48.0391H253.562V36.4844H248.922V42.8359H239.078V28.6094H241.328V33.9766H246.742V28.6094H248.922V34.6562H253.562V26.9922H255.766V48.0391ZM246.742 41.0078V35.7344H241.328V41.0078H246.742ZM278.219 45.4844H259V43.6094H267.461V39.9297H261.344V33.25H273.672V30.2969H261.297V28.4688H275.875V35.0312H263.547V38.1016H276.367V39.9297H269.664V43.6094H278.219V45.4844ZM304.82 45.4844H285.602V43.6094H294.062V39.9297H287.945V33.25H300.273V30.2969H287.898V28.4688H302.477V35.0312H290.148V38.1016H302.969V39.9297H296.266V43.6094H304.82V45.4844ZM322.984 31.375C322.984 32.6016 322.969 33.6641 322.938 34.5625C322.914 35.4609 322.848 36.5 322.738 37.6797C322.629 38.8516 322.453 40.1328 322.211 41.5234L319.938 41.3125C320.195 40.0156 320.387 38.7891 320.512 37.6328C320.637 36.4766 320.711 35.4492 320.734 34.5508C320.766 33.6445 320.781 32.5859 320.781 31.375V30.9531H308.406V29.125H322.984V31.375ZM325.492 45.0156H306.344V43.1641H325.492V45.0156ZM344.5 42.2734H342.273V27.0156H344.5V42.2734ZM345.133 47.5469H330.766V40.7266H333.016V45.7422H345.133V47.5469ZM333.109 28.4219C334.156 28.4219 335.102 28.6445 335.945 29.0898C336.797 29.5352 337.465 30.1523 337.949 30.9414C338.441 31.7305 338.688 32.625 338.688 33.625C338.688 34.6406 338.441 35.5469 337.949 36.3438C337.465 37.1328 336.797 37.75 335.945 38.1953C335.102 38.6328 334.156 38.8516 333.109 38.8516C332.062 38.8516 331.113 38.6328 330.262 38.1953C329.41 37.75 328.738 37.1289 328.246 36.332C327.754 35.5352 327.508 34.6328 327.508 33.625C327.508 32.625 327.754 31.7305 328.246 30.9414C328.738 30.1523 329.41 29.5352 330.262 29.0898C331.113 28.6445 332.062 28.4219 333.109 28.4219ZM333.109 30.3672C332.461 30.3672 331.875 30.5078 331.352 30.7891C330.836 31.0625 330.43 31.4453 330.133 31.9375C329.836 32.4297 329.688 32.9922 329.688 33.625C329.688 34.2734 329.832 34.8477 330.121 35.3477C330.418 35.8398 330.824 36.2227 331.34 36.4961C331.863 36.7695 332.453 36.9062 333.109 36.9062C333.75 36.9062 334.328 36.7695 334.844 36.4961C335.359 36.2227 335.766 35.8359 336.062 35.3359C336.359 34.8359 336.508 34.2656 336.508 33.625C336.508 33 336.359 32.4414 336.062 31.9492C335.766 31.4492 335.355 31.0625 334.832 30.7891C334.316 30.5078 333.742 30.3672 333.109 30.3672Z" fill="white"/>
<circle cx="54" cy="38" r="35" fill="#00C73C"/>
<path d="M49.1328 22.7991H37.3989V53.2013H49.1328V38.1334L59.6667 53.2013H70.6008V22.7991H59.6667V38.8002L49.1328 22.7991Z" fill="white"/>
</svg>
