<svg viewBox="0 0 32 32" fill="none" xmlns="http://www.w3.org/2000/svg">
<path d="M12.9143 4C15.2785 4 17.5459 4.93918 19.2176 6.61093C20.8894 8.28269 21.8286 10.5501 21.8286 12.9143C21.8286 15.1223 21.0194 17.152 19.6891 18.7154L20.0594 19.0857H21.1429L28 25.9429L25.9429 28L19.0857 21.1429V20.0594L18.7154 19.6891C17.152 21.0194 15.1223 21.8286 12.9143 21.8286C10.5501 21.8286 8.28269 20.8894 6.61093 19.2176C4.93918 17.5459 4 15.2785 4 12.9143C4 10.5501 4.93918 8.28269 6.61093 6.61093C8.28269 4.93918 10.5501 4 12.9143 4ZM12.9143 6.74286C9.48571 6.74286 6.74286 9.48571 6.74286 12.9143C6.74286 16.3429 9.48571 19.0857 12.9143 19.0857C16.3429 19.0857 19.0857 16.3429 19.0857 12.9143C19.0857 9.48571 16.3429 6.74286 12.9143 6.74286Z" fill="#FFC610"/>
</svg>
