<svg  viewBox="0 0 25 24" fill="none" xmlns="http://www.w3.org/2000/svg">
<path d="M12.5 16C13.0304 16 13.5391 16.2107 13.9142 16.5858C14.2893 16.9609 14.5 17.4696 14.5 18C14.5 18.5304 14.2893 19.0391 13.9142 19.4142C13.5391 19.7893 13.0304 20 12.5 20C11.9696 20 11.4609 19.7893 11.0858 19.4142C10.7107 19.0391 10.5 18.5304 10.5 18C10.5 17.4696 10.7107 16.9609 11.0858 16.5858C11.4609 16.2107 11.9696 16 12.5 16ZM12.5 10C13.0304 10 13.5391 10.2107 13.9142 10.5858C14.2893 10.9609 14.5 11.4696 14.5 12C14.5 12.5304 14.2893 13.0391 13.9142 13.4142C13.5391 13.7893 13.0304 14 12.5 14C11.9696 14 11.4609 13.7893 11.0858 13.4142C10.7107 13.0391 10.5 12.5304 10.5 12C10.5 11.4696 10.7107 10.9609 11.0858 10.5858C11.4609 10.2107 11.9696 10 12.5 10ZM12.5 4C13.0304 4 13.5391 4.21071 13.9142 4.58579C14.2893 4.96086 14.5 5.46957 14.5 6C14.5 6.53043 14.2893 7.03914 13.9142 7.41421C13.5391 7.78929 13.0304 8 12.5 8C11.9696 8 11.4609 7.78929 11.0858 7.41421C10.7107 7.03914 10.5 6.53043 10.5 6C10.5 5.46957 10.7107 4.96086 11.0858 4.58579C11.4609 4.21071 11.9696 4 12.5 4Z" fill="#363232"/>
</svg>
