<svg viewBox="0 0 44 42" fill="none" xmlns="http://www.w3.org/2000/svg">
<path d="M19.4976 38.2527L19.4962 38.2514C13.8122 32.889 9.17272 28.5048 5.94259 24.3934C2.72452 20.2973 1 16.587 1 12.5886C1 6.0319 5.91206 1 12.1 1C15.6107 1 19.0083 2.70568 21.2286 5.39713L22 6.33219L22.7714 5.39713C24.9917 2.70568 28.3893 1 31.9 1C38.0879 1 43 6.0319 43 12.5886C43 16.587 41.2755 20.2973 38.0574 24.3934C34.8273 28.5048 30.1878 32.889 24.5038 38.2514L24.5024 38.2527L22 40.6227L19.4976 38.2527Z" stroke="#CECCCC" stroke-width="2"/>
</svg>
